<?xml version="1.0" standalone="no"?>
<!DOCTYPE svg PUBLIC "-//W3C//DTD SVG 1.1//EN" "http://www.w3.org/Graphics/SVG/1.1/DTD/svg11.dtd" >
<svg xmlns="http://www.w3.org/2000/svg">
<metadata>
This is a custom SVG webfont generated by Font Squirrel.
Copyright   : Copyright Hans Reichel 1996 Published by FontShop International FontFont release 17
Foundry     : Hans Reichel  Published by FontShop International FontFont release
</metadata>
<defs>
<font id="DaxBold" horiz-adv-x="1155" >
<font-face units-per-em="2048" ascent="1608" descent="-440" />
<missing-glyph horiz-adv-x="548" />
<glyph unicode=" "  horiz-adv-x="548" />
<glyph unicode="&#x09;" horiz-adv-x="548" />
<glyph unicode="&#xa0;" horiz-adv-x="548" />
<glyph unicode="!" horiz-adv-x="677" d="M168 1409h381l-68 -903h-243zM176 166q0 76 53.5 128t128.5 52q76 0 129.5 -52t53.5 -128q0 -78 -53.5 -130t-129.5 -52t-129 52t-53 130z" />
<glyph unicode="&#x22;" horiz-adv-x="905" d="M117 1366q49 63 137 64q88 0 137 -64l-57 -573h-162zM512 1366q29 35 60.5 49.5t78.5 14.5q88 0 137 -64l-57 -573h-164z" />
<glyph unicode="#" d="M74 438v156h202l46 256h-177v156h203l70 403h176l-70 -403h203l68 403h178l-70 -403h178v-154h-204l-46 -258h179v-154h-205l-74 -440h-178l76 440h-201l-78 -440h-176l76 438h-176zM453 594h200l47 258h-202z" />
<glyph unicode="$" d="M152 63l73 222q39 -23 97.5 -43.5t130.5 -20.5q86 0 138 48t52 132q0 72 -47 120t-156 95q-123 53 -199.5 146.5t-76.5 232.5q0 78 24.5 148.5t70.5 127t113.5 94.5t151.5 52l-22 248h176l-21 -244q90 -6 155 -26.5t108 -48.5l-64 -185q-37 23 -89 40.5t-116 17.5 q-78 0 -129 -46.5t-51 -123.5q0 -82 53.5 -129.5t145.5 -90.5q156 -74 229.5 -170t73.5 -237q0 -82 -25.5 -152.5t-74 -126t-116 -94.5t-149.5 -53l25 -266h-182l22 258q-117 4 -192.5 23t-128.5 52z" />
<glyph unicode="%" horiz-adv-x="1818" d="M117 942q0 82 12 168t46 156.5t95.5 117t157.5 46.5t157.5 -46.5t96.5 -117t47 -156.5t12 -168q0 -80 -13 -166t-48 -156.5t-95.5 -115.5t-156.5 -45t-157.5 45t-95.5 115.5t-46 156.5t-12 166zM322 950q0 -66 3 -127t14 -108t32.5 -75t56.5 -28q37 0 58.5 28t32.5 75 t14.5 108.5t3.5 126.5q0 68 -3.5 129.5t-14.5 109.5t-32.5 76.5t-58.5 28.5q-35 0 -56.5 -28.5t-32.5 -76.5t-14 -109.5t-3 -129.5zM590 18l481 1409l156 -38l-482 -1409zM1077 465q0 80 12.5 166t47 156.5t96 116.5t158.5 46q96 0 156.5 -46t95 -116.5t47 -156.5t12.5 -166 t-12.5 -166t-47 -156.5t-95 -116.5t-156.5 -46t-158 46t-96.5 116.5t-47 156.5t-12.5 166zM1282 473q0 -68 3 -129t14.5 -108.5t33 -75t58.5 -27.5q35 0 56 27.5t31.5 75t14.5 109t4 128.5q0 66 -3 127.5t-14.5 109.5t-33 76.5t-55.5 28.5q-37 0 -58.5 -28.5t-33 -76.5 t-14.5 -109.5t-3 -127.5z" />
<glyph unicode="&#x26;" horiz-adv-x="1327" d="M86 393q0 80 26.5 143.5t69.5 110.5t99.5 81t115.5 54v6q-109 43 -167 118t-58 179q0 76 30.5 139.5t87 108.5t137.5 71t179 26q113 0 204 -24t144 -58l-92 -185q-35 16 -81 30.5t-105 14.5q-92 0 -138 -41t-46 -112q0 -78 59 -120t149 -42q121 0 259.5 46t273.5 112 l92 -189q-18 -10 -45 -20.5t-56.5 -21.5t-60 -20t-57.5 -16v-721q-66 -37 -175.5 -60t-275.5 -23q-266 0 -417.5 105t-151.5 308zM426 414q0 -113 58.5 -173.5t187.5 -60.5q78 0 121 19v528q-188 -43 -277.5 -112.5t-89.5 -200.5z" />
<glyph unicode="'" horiz-adv-x="509" d="M117 1366q49 63 139 64q90 0 137 -64l-57 -573h-162z" />
<glyph unicode="(" horiz-adv-x="815" d="M111 586q0 133 28.5 261t90 256t158.5 260t233 273l149 -84q-147 -205 -236.5 -445.5t-89.5 -520.5q0 -283 89.5 -523.5t236.5 -445.5l-149 -84q-135 141 -232.5 273.5t-159 261.5t-90 257t-28.5 261z" />
<glyph unicode=")" horiz-adv-x="815" d="M45 -383q147 205 237.5 445.5t90.5 523.5q0 281 -90 521.5t-238 444.5l150 84q135 -141 232 -273t158.5 -260t90.5 -256t29 -261t-29 -261t-90.5 -257t-158.5 -261.5t-232 -273.5z" />
<glyph unicode="*" horiz-adv-x="944" d="M94 1354q0 49 33 81.5t80 32.5q45 0 78.5 -32.5t33.5 -81.5q0 -47 -33.5 -81t-78.5 -34q-47 0 -80 34t-33 81zM188 1042q0 49 34 83t79 34q47 0 80 -33.5t33 -83.5q0 -47 -33 -79.5t-80 -32.5q-45 0 -79 32.5t-34 79.5zM360 1546q0 47 33 81t80 34q45 0 79 -34t34 -81 q0 -49 -34 -81.5t-81 -32.5q-45 0 -78 32.5t-33 81.5zM381 1268q0 41 27.5 66.5t64.5 25.5t63.5 -25.5t26.5 -66.5t-26.5 -66.5t-65.5 -25.5q-35 0 -62.5 25.5t-27.5 66.5zM528 1042q0 49 34 82t81 33q45 0 78 -32.5t33 -82.5q0 -49 -33 -80.5t-80 -31.5q-45 0 -79 32.5 t-34 79.5zM625 1354q0 47 33.5 80.5t80.5 33.5q45 0 78 -33.5t33 -80.5q0 -49 -33 -84t-80 -33q-45 0 -78.5 34t-33.5 83z" />
<glyph unicode="+" d="M162 578v204h313v322h205v-322h313v-204h-313v-324h-205v324h-313z" />
<glyph unicode="," horiz-adv-x="620" d="M2 -346l191 590q29 41 74.5 67.5t113.5 26.5q66 0 96.5 -27.5t36.5 -66.5l-326 -590h-186z" />
<glyph unicode="-" horiz-adv-x="729" d="M98 569v236h533v-236h-533z" />
<glyph unicode="." horiz-adv-x="575" d="M106 166q0 76 52.5 129t128.5 53t129 -53t53 -129t-53.5 -129t-128.5 -53q-76 0 -128.5 53t-52.5 129z" />
<glyph unicode="/" horiz-adv-x="1191" d="M16 -379l965 2013l195 -94l-965 -2013z" />
<glyph unicode="0" d="M94 705q0 119 21.5 246.5t77 234t148.5 175.5t237 69q143 0 236 -69t148.5 -175.5t77 -234.5t21.5 -246q0 -119 -21.5 -247t-77 -234.5t-148.5 -175t-236 -68.5t-236.5 68.5t-149 175t-77 234.5t-21.5 247zM399 709q0 -102 6.5 -195.5t26 -165.5t54 -115t92.5 -43 q57 0 92 43t54 115t25.5 165t6.5 196q0 100 -6.5 194t-25.5 167t-54 117t-92 44t-92 -44t-54.5 -117t-26 -167t-6.5 -194z" />
<glyph unicode="1" d="M152 1198q100 12 178 34.5t136 52.5t95 61.5t55 62.5h232v-1409h-326v1073q-45 -23 -135 -42t-197 -25z" />
<glyph unicode="2" d="M59 0l480 694q37 55 61.5 97.5t37.5 77t18.5 65.5t5.5 61q0 98 -55.5 150.5t-174.5 52.5q-92 0 -150.5 -16.5t-101.5 -38.5l-76 203q59 31 157.5 57.5t242.5 26.5q137 0 231 -35t151.5 -92.5t83 -128t25.5 -140.5q0 -88 -44 -183t-142 -220l-287 -367h482v-264h-945z" />
<glyph unicode="3" d="M66 59l84 217q41 -23 110.5 -41t163.5 -18q115 0 181.5 55.5t66.5 155.5q0 70 -31 115t-80 69.5t-110.5 33.5t-122.5 7v168q152 16 232.5 75.5t80.5 152.5q0 78 -54.5 116.5t-142.5 38.5q-80 0 -148.5 -16.5t-113.5 -38.5l-78 201q61 31 162 55.5t232 24.5 q215 0 339 -92.5t124 -252.5q0 -59 -21.5 -106t-54.5 -83t-73 -61.5t-75 -39.5v-4q55 -20 106.5 -50t90.5 -73t61.5 -102.5t22.5 -139.5q0 -100 -40 -182t-110.5 -140.5t-170 -91t-218.5 -32.5q-141 0 -241 21t-172 58z" />
<glyph unicode="4" d="M98 279v188l547 942h313v-956h107v-174h-107v-279h-301v279h-559zM299 453h358v446v80q0 39 2 68q2 35 5 61q-2 0 -28 -58.5t-75 -144.5z" />
<glyph unicode="5" d="M82 59l84 217q43 -23 112.5 -42t163.5 -19q104 0 176 55.5t72 157.5q0 57 -24.5 108.5t-86 84t-165 43t-258.5 -14.5l80 760h737v-264h-514l-25 -299q160 8 273.5 -19.5t186.5 -85t106.5 -138.5t33.5 -177t-39 -177t-109.5 -141.5t-170 -94t-219.5 -33.5 q-137 0 -238.5 20t-175.5 59z" />
<glyph unicode="6" d="M102 526q0 154 40 278t103.5 221t144.5 168t163 120t157.5 75.5t129.5 34.5l82 -211q-53 -14 -117 -39.5t-127.5 -69.5t-121.5 -107.5t-97 -151.5q29 10 62.5 15t72.5 5q84 0 168 -21.5t150.5 -72.5t108.5 -133t42 -205q0 -98 -33 -182t-94.5 -143.5t-150.5 -93 t-199 -33.5q-133 0 -224.5 45t-149.5 119.5t-84 173.5t-26 208zM397 516q0 -63 9.5 -122.5t32 -105.5t59.5 -74t90 -28q49 0 83 22.5t53 59.5t28.5 85t9.5 98q0 254 -236 254q-39 0 -67.5 -7.5t-46.5 -15.5q-10 -41 -12.5 -79t-2.5 -87z" />
<glyph unicode="7" d="M109 1145v264h991l-176 -432q-59 -147 -113.5 -288.5t-97.5 -268.5t-76 -234.5t-49 -185.5h-389l514 1145h-604z" />
<glyph unicode="8" d="M94 352q0 61 17.5 113.5t52.5 97.5t88 86t125 82q-123 78 -182.5 157t-59.5 187q0 80 34 145.5t92 111.5t139 72t178 26q94 0 175 -26t140 -72t93 -110.5t34 -144.5q0 -109 -58.5 -184.5t-183.5 -149.5q141 -88 212 -178t71 -211q0 -86 -36 -154.5t-99.5 -117.5 t-152.5 -75.5t-195 -26.5q-102 0 -190.5 24.5t-153 71.5t-102.5 116.5t-38 159.5zM371 360q0 -78 58 -131t144 -53t140.5 51.5t54.5 128.5q0 37 -7 70t-28.5 63.5t-59.5 62.5t-102 71q-63 -37 -103 -69t-61.5 -62.5t-28.5 -62.5t-7 -69zM406 1083q0 -37 8 -65.5t28.5 -55 t55 -54t88.5 -60.5q51 33 86 60.5t55.5 54t28.5 55.5t8 63q0 74 -51 122t-129 48q-80 0 -129 -48t-49 -120z" />
<glyph unicode="9" d="M92 973q0 98 34 181t96.5 142.5t152.5 93t200 33.5q131 0 222.5 -45t149 -119.5t82 -174t24.5 -207.5q0 -154 -40 -278t-103.5 -221t-144.5 -168t-163 -120t-157.5 -75.5t-129.5 -34.5l-82 210q53 14 117 40t127.5 70t120.5 107.5t98 151.5q-29 -10 -62.5 -15t-72.5 -5 q-84 0 -168 21.5t-150.5 72.5t-108.5 134t-42 206zM389 965q0 -254 236 -254q39 0 67.5 7t48.5 13q14 72 15 168q0 63 -10.5 121.5t-33 104.5t-59.5 74t-90 28q-49 0 -81.5 -22.5t-53 -59.5t-30 -84t-9.5 -96z" />
<glyph unicode=":" horiz-adv-x="575" d="M106 166q0 76 52.5 129t128.5 53t129 -53t53 -129t-53.5 -129t-128.5 -53q-76 0 -128.5 53t-52.5 129zM106 811q0 76 52.5 129t128.5 53t129 -53t53 -129t-53.5 -129t-128.5 -53q-76 0 -128.5 53t-52.5 129z" />
<glyph unicode=";" horiz-adv-x="620" d="M2 -346l191 590q29 41 74.5 68.5t111.5 27.5t97.5 -27.5t37.5 -68.5l-326 -590h-186zM150 811q0 76 53 129t129 53t129 -53t53 -129t-53 -129t-129 -53t-129 53t-53 129z" />
<glyph unicode="&#x37e;" horiz-adv-x="620" d="M2 -346l191 590q29 41 74.5 68.5t111.5 27.5t97.5 -27.5t37.5 -68.5l-326 -590h-186zM150 811q0 76 53 129t129 53t129 -53t53 -129t-53 -129t-129 -53t-129 53t-53 129z" />
<glyph unicode="&#x3c;" d="M162 588v188l831 348v-223l-579 -219l579 -221v-221z" />
<glyph unicode="=" d="M162 362v205h831v-205h-831zM162 791v204h831v-204h-831z" />
<glyph unicode="&#x3e;" d="M162 240v221l579 221l-579 219v223l831 -348v-188z" />
<glyph unicode="?" horiz-adv-x="921" d="M74 1348q61 33 151 56t201 23t198 -24.5t147 -70.5t93 -110.5t33 -144.5q0 -74 -30.5 -130t-77 -99t-98.5 -70.5t-97 -42.5l-21 -229h-241l-33 321q53 10 100 30t83 47.5t57.5 62t21.5 77.5q0 68 -46 116t-155 48q-66 0 -120 -17t-84 -34zM270 166q0 76 53.5 129 t129.5 53t129 -53t53 -129t-53.5 -129t-128.5 -53q-76 0 -129.5 53t-53.5 129z" />
<glyph unicode="@" horiz-adv-x="1777" d="M102 467q0 195 74 370t202 307t301 210t374 78q135 0 248.5 -41t194.5 -116t126 -183.5t45 -243.5q0 -104 -30.5 -229t-90 -232.5t-149.5 -179.5t-209 -72q-78 0 -114 40t-50 128q-123 -166 -299 -166q-70 0 -120 28t-83 74t-48 105t-15 123q0 86 28.5 185.5t84 184.5 t137.5 140t186 55q84 0 137 -42t92 -113l27 118h147l-88 -395q-16 -68 -26 -125t-10 -104q0 -55 12 -82t49 -27q63 0 118.5 60.5t95.5 148.5t62.5 189.5t22.5 183.5q0 113 -37 203t-102.5 153.5t-156.5 96t-200 32.5q-176 0 -322.5 -73.5t-253 -195.5t-165.5 -277.5 t-59 -319.5q0 -150 49 -264.5t136 -193.5t206 -119t260 -40q123 0 222 24t182 63.5t153 95t131 118.5l70 -88q-72 -74 -150 -134t-170 -101t-201.5 -63.5t-240.5 -22.5q-172 0 -315.5 48t-248 141t-162 229.5t-57.5 310.5zM621 469q0 -92 45 -147.5t116 -55.5q70 0 124.5 47 t90 114t54 140.5t18.5 128.5q2 94 -44 151.5t-120 57.5q-72 0 -126 -47t-89 -114.5t-52 -143.5t-17 -131z" />
<glyph unicode="A" horiz-adv-x="1255" d="M8 0l459 1409h324l456 -1409h-342l-86 301h-424l-90 -301h-297zM444 492h330l-125 458q-10 37 -16 68t-10 53q-4 27 -7 49h-4q-2 -20 -8 -47q-4 -23 -11 -54.5t-18 -68.5z" />
<glyph unicode="B" horiz-adv-x="1228" d="M133 61v1287q72 37 183.5 59.5t250.5 22.5t241.5 -29t169 -80t99.5 -118.5t33 -147.5q0 -70 -23.5 -123t-60.5 -91t-81 -62.5t-87 -35.5v-4q47 -12 99.5 -40.5t95.5 -73.5t70.5 -103.5t27.5 -132.5q0 -104 -39 -182t-112.5 -128t-179 -74.5t-236.5 -24.5q-291 -1 -451 81 zM449 199q25 -10 55.5 -15.5t70.5 -5.5q117 0 180.5 50.5t63.5 172.5q0 125 -67.5 187.5t-237.5 62.5h-65v-452zM449 811h65q156 0 217.5 53.5t61.5 167.5q0 211 -224 211q-37 0 -64.5 -3t-55.5 -13v-416z" />
<glyph unicode="C" horiz-adv-x="1005" d="M90 705q0 141 34 271t102.5 231.5t174 162t246.5 60.5q104 0 178 -22t127 -60l-67 -201q-29 18 -68 30.5t-98 12.5q-82 0 -136.5 -42t-88 -109.5t-48 -154.5t-14.5 -177t15.5 -175.5t50 -152t88 -106.5t131.5 -40q59 0 93 11.5t69 31.5l75 -213q-109 -84 -309 -83 q-143 0 -247.5 59t-173 159.5t-101.5 232t-33 274.5z" />
<glyph unicode="D" horiz-adv-x="1265" d="M133 61v1287q78 37 178.5 59.5t229.5 22.5q172 0 292.5 -54.5t196.5 -152t111 -228.5t35 -284q0 -152 -33 -285t-106.5 -232.5t-191.5 -156.5t-288 -57q-137 0 -243.5 21t-180.5 60zM461 223q18 -6 43.5 -10t54.5 -4q76 0 129 27.5t87 88t49.5 157t15.5 235.5 q0 262 -65.5 378.5t-219.5 116.5q-57 0 -94 -14v-975z" />
<glyph unicode="E" horiz-adv-x="940" d="M133 0v1409h721v-223h-387v-359h338v-217h-338v-387h387v-223h-721z" />
<glyph unicode="F" horiz-adv-x="927" d="M133 0v1409h719v-223h-385v-359h336v-217h-336v-610h-334z" />
<glyph unicode="G" horiz-adv-x="1249" d="M90 711q0 160 44 293t128 227t205 146.5t272 52.5q125 0 215 -22t158 -60l-96 -205q-35 20 -90.5 35.5t-147.5 15.5q-170 0 -261 -116.5t-91 -375.5q0 -248 78 -370.5t207 -122.5q41 0 65.5 6t38.5 14v400h-168v198h479v-766q-70 -41 -161 -61t-236 -20q-160 0 -279.5 51 t-199.5 145t-120 229.5t-40 305.5z" />
<glyph unicode="H" horiz-adv-x="1290" d="M133 0v1409h334v-582h356v582h334v-1409h-334v610h-356v-610h-334z" />
<glyph unicode="I" horiz-adv-x="606" d="M137 0v1409h332v-1409h-332z" />
<glyph unicode="J" horiz-adv-x="606" d="M-76 -221q88 16 150.5 85.5t62.5 196.5v1348h332v-1315q0 -131 -41 -230.5t-114.5 -167t-173 -104t-216.5 -43.5v230z" />
<glyph unicode="K" horiz-adv-x="1210" d="M137 0v1409h330v-635h4l354 635h340l-399 -647l426 -762h-373l-348 698h-4v-698h-330z" />
<glyph unicode="L" horiz-adv-x="888" d="M137 0v1409h332v-1186h358v-223h-690z" />
<glyph unicode="M" horiz-adv-x="1636" d="M80 0l149 1409h324l219 -788q10 -33 16.5 -61t10.5 -50q6 -25 10 -47h4q4 23 10 47q8 41 29 111l231 788h322l151 -1409h-315q0 10 -4 50t-9 99.5t-11.5 131t-12.5 145.5q-14 172 -33 385q-4 33 -5 63.5t-1 55.5v53h-4q-4 -27 -12 -53q-6 -25 -13.5 -54.5t-17.5 -64.5 q-61 -207 -110 -379q-23 -74 -43.5 -145.5t-38 -131t-29.5 -101.5t-16 -54h-166q-4 10 -16.5 51t-30 100.5t-39 131t-41.5 145.5q-51 172 -111 383q-10 35 -17 64.5t-14 54.5q-8 27 -12 53h-4v-53v-54q0 -30 -4 -65q-20 -211 -35 -383q-6 -74 -13 -145.5t-11.5 -130 t-8.5 -99.5t-4 -53h-274z" />
<glyph unicode="N" horiz-adv-x="1339" d="M133 0v1409h293l432 -723q16 -29 28.5 -52.5t22.5 -41.5l21 -41h4q-2 20 -4 43q-2 20 -3 45t-1 53v717h280v-1409h-256l-469 791q-35 55 -53 100q-10 23 -20 47h-5q2 -23 5 -47q2 -23 3 -50.5t1 -56.5v-784h-279z" />
<glyph unicode="O" horiz-adv-x="1282" d="M90 705q0 150 31 281.5t97.5 230t171 156t251.5 57.5t251.5 -57.5t171 -156t97.5 -230.5t31 -281q0 -150 -31 -282t-97.5 -230.5t-171 -155.5t-251.5 -57t-251.5 57t-171 155.5t-97.5 230.5t-31 282zM428 717q0 -90 8 -179t30.5 -159t64.5 -113t110 -43t110 43t65.5 113 t30.5 159t7 179t-8 178t-31.5 158.5t-65.5 113.5t-108 43q-68 0 -108.5 -43t-64.5 -113.5t-32 -158.5t-8 -178z" />
<glyph unicode="P" horiz-adv-x="1173" d="M133 0v1348q76 37 184.5 59.5t243.5 22.5q147 0 249.5 -35t168 -96.5t95.5 -143.5t30 -176q0 -98 -34 -187.5t-106.5 -153t-186.5 -94.5q-78 -22 -178 -22q-45 0 -95 4l-45 4v-530h-326zM459 721l45 -2q18 -1 34 -1q131 0 187 58q63 66 63 205q0 133 -51 196.5t-178 63.5 q-35 0 -60.5 -5t-39.5 -11v-504z" />
<glyph unicode="Q" horiz-adv-x="1282" d="M90 707q0 147 31 279t97.5 230.5t171 156t251.5 57.5t252.5 -57.5t171 -156t96.5 -230.5t31 -279q0 -100 -14.5 -193.5t-44 -175.5t-76.5 -149.5t-113 -116.5l221 -271l-241 -213l-183 406q-29 -6 -51 -8t-49 -2q-147 0 -251.5 57t-171 155.5t-97.5 229.5t-31 281z M428 719q0 -90 7 -178t30.5 -159t65.5 -114t110 -43t110 43t65.5 114t30.5 159t7 178t-8 178t-30.5 157.5t-64.5 112.5t-110 43t-110 -43t-64.5 -112.5t-30.5 -157.5t-8 -178z" />
<glyph unicode="R" horiz-adv-x="1210" d="M135 0v1348q78 37 185.5 59.5t238.5 22.5q143 0 247.5 -31t173.5 -88.5t102.5 -139t33.5 -182.5q0 -70 -24.5 -130t-68.5 -107t-103.5 -79t-128.5 -42v-4l374 -627h-364l-334 623h-4v-623h-328zM463 707q10 -4 29.5 -6.5t42.5 -2.5q129 0 192.5 73t63.5 202 q0 135 -49.5 201.5t-182.5 66.5q-31 0 -54.5 -5t-41.5 -13v-516z" />
<glyph unicode="S" horiz-adv-x="991" d="M63 63l76 232q35 -23 94.5 -44.5t133.5 -21.5q88 0 138 46.5t50 121.5q0 68 -44 115t-153 94q-82 37 -136 83t-86 97.5t-45 104.5t-13 104q0 88 30.5 168t89 138.5t141.5 93.5t185 35q115 0 197 -24t133 -58l-70 -203q-37 23 -91 42t-120 19q-84 0 -127 -43t-43 -119 q0 -78 50.5 -121.5t140.5 -84.5q102 -47 163.5 -97.5t94.5 -103.5t43 -107.5t10 -107.5q0 -96 -34.5 -177t-97 -139.5t-149.5 -92t-192 -33.5q-131 0 -220.5 21t-148.5 62z" />
<glyph unicode="T" horiz-adv-x="952" d="M63 1186v223h824v-223h-244v-1186h-334v1186h-246z" />
<glyph unicode="U" horiz-adv-x="1245" d="M133 416v993h334v-991q0 -94 49 -141.5t121 -47.5t120 47.5t48 143.5v989h307v-993q0 -100 -37 -181t-102.5 -138.5t-154.5 -88.5t-195 -31q-104 0 -194.5 31t-156 87.5t-102.5 137.5t-37 183z" />
<glyph unicode="V" horiz-adv-x="1163" d="M14 1409h353l196 -819q6 -29 12.5 -59.5t10.5 -55.5q6 -29 10 -57h2q4 29 10 57l9 55q5 31 14 60l203 819h319l-424 -1409h-289z" />
<glyph unicode="W" horiz-adv-x="1720" d="M43 1409h328l147 -823q4 -31 8 -59.5t9 -51.5q4 -27 4 -49h4q2 23 6 49q4 23 8 51.5t12 59.5l187 823h237l183 -823q6 -29 10 -57.5t8 -51.5q4 -27 6 -51h4q0 25 4 51q4 23 7.5 51.5t9.5 57.5l153 823h301l-315 -1409h-293l-182 741q-8 29 -12.5 54.5t-8.5 48.5 q-4 25 -6 47h-4q-2 -23 -6 -45q-4 -23 -8 -49.5t-10 -55.5l-179 -741h-295z" />
<glyph unicode="X" horiz-adv-x="1142" d="M14 0l375 719l-338 690h355l169 -422h5l198 422h318l-351 -651l383 -758h-370l-197 459h-4l-203 -459h-340z" />
<glyph unicode="Y" horiz-adv-x="1087" d="M4 1409h348l203 -532h4l213 532h313l-376 -817v-592h-332v592z" />
<glyph unicode="Z" horiz-adv-x="966" d="M35 0l440 1186h-393v223h805l-424 -1186h432v-223h-860z" />
<glyph unicode="[" horiz-adv-x="749" d="M131 -440v2048h543v-181h-262v-1685h262v-182h-543z" />
<glyph unicode="\" horiz-adv-x="1196" d="M16 1538l197 96l967 -2013l-197 -96z" />
<glyph unicode="]" horiz-adv-x="749" d="M76 -258h262v1685h-262v181h542v-2048h-542v182z" />
<glyph unicode="^" horiz-adv-x="1255" d="M166 928l328 432q27 35 62.5 51t72.5 16q35 0 70.5 -16t62.5 -51l328 -432l-127 -123l-334 373l-336 -373z" />
<glyph unicode="_" d="M-20 -258h1196v-195h-1196v195z" />
<glyph unicode="`" horiz-adv-x="507" d="M-10 1503q10 27 45 39t80 12t92 -11t82 -32l139 -294h-174z" />
<glyph unicode="a" horiz-adv-x="1105" d="M70 328q0 106 49 178t134 117t196.5 68.5t236.5 35.5v51q0 86 -53 117t-141 31q-80 0 -157 -21.5t-130 -46.5l-70 182q59 25 163.5 54.5t252.5 29.5q94 0 173 -21.5t137.5 -68.5t91 -123.5t32.5 -189.5v-660q-70 -37 -179.5 -59t-252.5 -22q-483 0 -483 348zM369 340 q0 -98 52 -141t148 -43q72 0 117 22v402q-72 -6 -131 -20.5t-100 -41t-63.5 -69.5t-22.5 -109z" />
<glyph unicode="b" horiz-adv-x="1167" d="M121 61v1547h319v-531q39 18 86 29.5t119 11.5q98 0 179 -38t139.5 -107.5t90 -167.5t31.5 -221q0 -293 -145 -448.5t-420 -155.5q-143 0 -243.5 23t-155.5 58zM440 188q39 -16 99 -16q123 0 177 102.5t54 288.5q0 80 -9 148.5t-34 119t-67 78t-105 27.5q-39 0 -65.5 -6 t-49.5 -19v-723z" />
<glyph unicode="c" horiz-adv-x="860" d="M82 555q0 139 36 245.5t98.5 178.5t144 108.5t174.5 36.5q102 0 167.5 -24.5t102.5 -55.5l-66 -176q-23 16 -53.5 29.5t-77.5 13.5q-104 0 -154.5 -91t-50.5 -261q0 -168 53.5 -260t149.5 -92q45 0 77 11t56 34l68 -193q-35 -35 -100.5 -57t-169.5 -22q-98 0 -181.5 37.5 t-144.5 110.5t-95 180.5t-34 246.5z" />
<glyph unicode="d" horiz-adv-x="1167" d="M82 545q0 133 36 238.5t100.5 179t153.5 113.5t195 40q49 0 90 -5t72 -13v510h318v-1547q-76 -41 -177.5 -61t-244.5 -20q-125 0 -225.5 36.5t-171 107.5t-108.5 176.5t-38 244.5zM397 559q0 -180 55.5 -278.5t178.5 -98.5q68 0 98 17v727q-41 12 -88 12 q-66 0 -113 -27.5t-75.5 -77t-42 -119t-13.5 -155.5z" />
<glyph unicode="e" horiz-adv-x="1128" d="M82 555q0 129 32.5 234.5t96 180t157 114.5t212.5 40q242 0 359 -154q108 -142 108 -391v-44l-662 -95q16 -123 79.5 -182t186.5 -59q98 0 170 18.5t117 40.5l72 -199q-66 -33 -160 -56t-236 -23q-127 0 -226 39.5t-166.5 115.5t-103.5 181.5t-36 238.5zM365 596l385 57 q0 147 -47.5 215t-135.5 68q-98 0 -154 -84q-49 -73 -49 -214q0 -20 1 -42z" />
<glyph unicode="f" horiz-adv-x="722" d="M66 897v207h120v113q0 209 132 311q107 83 274 82q40 0 84 -4v-203h-17q-68 0 -108 -30q-45 -34 -45 -130v-139h170v-207h-170v-897h-320v897h-120z" />
<glyph unicode="g" horiz-adv-x="1161" d="M82 524q0 137 36 249t106.5 189.5t177 119.5t247.5 42q129 0 230.5 -23.5t160.5 -58.5v-1050q0 -117 -35.5 -203t-100 -142.5t-152.5 -84t-195 -27.5q-129 0 -237.5 22.5t-174.5 59.5l82 207q51 -29 123 -47.5t150 -18.5q127 0 178 55.5t51 151.5v62q-29 -16 -76 -25.5 t-116 -9.5q-98 0 -182.5 37t-144.5 105.5t-94 167.5t-34 222zM397 543q0 -188 52.5 -278.5t173.5 -90.5q63 0 106 27v721q-37 18 -100 18q-123 0 -177.5 -99t-54.5 -298z" />
<glyph unicode="h" horiz-adv-x="1179" d="M121 0v1608h319v-541q55 25 113.5 38t124.5 13q104 0 176 -27.5t118 -74.5t66.5 -109.5t20.5 -132.5v-774h-320v768q0 66 -34.5 111t-129.5 45q-39 0 -70.5 -7.5t-64.5 -23.5v-893h-319z" />
<glyph unicode="i" horiz-adv-x="573" d="M117 1421q0 61 49 105.5t121 44.5t121 -44t49 -106q0 -63 -49.5 -106t-120.5 -43q-72 0 -121 43t-49 106zM127 0v1104h319v-1104h-319z" />
<glyph unicode="j" horiz-adv-x="575" d="M-53 -250q45 14 78.5 37t56 61.5t35 95t12.5 140.5v1020h320v-981q0 -135 -38 -240.5t-104.5 -180.5t-159 -117t-200.5 -46v211zM119 1421q0 61 49 105.5t121 44.5t121 -44t49 -108q0 -61 -49.5 -104t-120.5 -43q-72 0 -121 43t-49 106z" />
<glyph unicode="k" horiz-adv-x="1120" d="M127 0v1608h317v-992h5l309 488h319l-346 -496l393 -608h-358l-317 557h-5v-557h-317z" />
<glyph unicode="l" horiz-adv-x="573" d="M127 0v1608h319v-1608h-319z" />
<glyph unicode="m" horiz-adv-x="1800" d="M121 0v1042q92 41 196.5 61.5t249.5 20.5q137 0 220 -31.5t131 -78.5q53 45 140 77.5t224 32.5q98 0 173 -27.5t124 -74.5t74.5 -110.5t25.5 -137.5v-774h-319v774q0 63 -38 106.5t-122 43.5q-86 0 -139 -54v-870h-320v778q0 66 -44 106t-128 40q-43 0 -71.5 -5.5 t-57.5 -15.5v-903h-319z" />
<glyph unicode="n" horiz-adv-x="1179" d="M121 0v1042q84 37 199.5 59.5t263.5 22.5q131 0 222 -26.5t147.5 -73.5t81 -110.5t24.5 -139.5v-774h-320v772q0 29 -7 56.5t-25.5 49t-50 35t-81.5 13.5q-47 0 -76.5 -6.5t-58.5 -16.5v-903h-319z" />
<glyph unicode="o" horiz-adv-x="1138" d="M82 553q0 123 30.5 228.5t92 181t153 118.5t209.5 43q121 0 212 -43t152.5 -118.5t93.5 -181t32 -228.5t-32 -228.5t-93.5 -182t-152.5 -119.5t-210 -43q-121 0 -212 43t-152.5 119.5t-92 182t-30.5 228.5zM399 557q0 -74 7.5 -139.5t26 -114.5t51 -77.5t85.5 -28.5 t86 28.5t51.5 77.5t25.5 114.5t7 139.5t-7 140.5t-25.5 117.5t-51 81t-86.5 30q-53 0 -85.5 -30t-51 -81t-26 -117.5t-7.5 -140.5z" />
<glyph unicode="p" horiz-adv-x="1167" d="M121 -440v1482q72 35 173 58.5t249 23.5q123 0 223 -35.5t171 -107.5t109.5 -177.5t38.5 -244.5q0 -133 -35.5 -239.5t-99 -180t-153.5 -113.5t-197 -40q-51 0 -93 5t-67 13v-444h-319zM440 188q35 -14 84 -14q129 0 187.5 97.5t58.5 283.5t-51 283.5t-180 97.5 q-33 0 -55.5 -4t-43.5 -12v-732z" />
<glyph unicode="q" horiz-adv-x="1167" d="M82 518q0 129 31.5 239.5t99.5 191.5t175.5 128t260.5 47q137 0 237.5 -23.5t160.5 -58.5v-1482h-318v465q-37 -18 -85 -29.5t-114 -11.5q-98 0 -180 37.5t-142.5 106.5t-93 168t-32.5 222zM397 545q0 -180 51.5 -274.5t167.5 -94.5q37 0 65 7t48 18v721q-37 18 -100 18 q-232 0 -232 -395z" />
<glyph unicode="r" horiz-adv-x="735" d="M121 0v1042q92 45 230 67q94 15 227 15q63 0 135 -4l-60 -225q-59 25 -115.5 25t-97.5 -19v-901h-319z" />
<glyph unicode="s" horiz-adv-x="874" d="M55 61l82 203q31 -25 84 -44t113 -19q61 0 99 33.5t38 87.5q0 55 -31.5 89.5t-109.5 65.5q-76 31 -124 66t-76 74.5t-38 81.5t-10 85q0 70 26.5 132.5t74.5 108.5t116 72.5t152 26.5q104 0 177.5 -19.5t139.5 -60.5l-78 -182q-25 20 -70 39t-98 19q-63 0 -95 -34t-32 -81 q0 -55 38 -89t104 -63q80 -35 131 -70.5t79.5 -75.5t40 -84t11.5 -93q0 -72 -29 -135.5t-83 -110.5t-132 -74.5t-176 -27.5q-102 0 -187.5 22t-136.5 57z" />
<glyph unicode="t" horiz-adv-x="745" d="M66 897v207h120v235l320 82v-317h170v-207h-170v-569q0 -129 102 -129q20 0 33.5 3t34.5 9v-197q-20 -10 -61.5 -20t-96.5 -10q-86 0 -149.5 25.5t-103.5 69.5t-59.5 102.5t-19.5 121.5v594h-120z" />
<glyph unicode="u" horiz-adv-x="1165" d="M121 362v742h319v-764q0 -59 35 -102t117 -43t133 26v883h319v-1038q-78 -39 -191.5 -62.5t-268.5 -23.5q-236 0 -349.5 90.5t-113.5 291.5z" />
<glyph unicode="v" horiz-adv-x="1069" d="M29 1104h338l157 -635q8 -33 12.5 -63.5t8.5 -53.5q4 -27 4 -51h4q2 25 6 51q4 23 8 52.5t15 64.5l161 635h299l-350 -1104h-309z" />
<glyph unicode="w" horiz-adv-x="1646" d="M43 1104h317l134 -637q6 -35 10 -63.5t6 -51.5q2 -25 4 -45h4q0 20 4 45q4 23 8.5 51.5t14.5 63.5l168 637h262l158 -637q6 -29 11 -57.5t9 -51.5q4 -27 6 -51h4q2 25 4 51q2 23 5.5 51.5t11.5 59.5l141 635h281l-303 -1104h-295l-158 598q-8 29 -11 54.5t-8 47.5 q-4 25 -4 50h-2q0 -25 -4 -50q-4 -23 -8 -48t-12 -54l-162 -598h-293z" />
<glyph unicode="x" horiz-adv-x="1062" d="M14 0l346 569l-311 535h336l160 -320h4l170 320h297l-318 -512l351 -592h-353l-174 352l-4 2l-180 -354h-324z" />
<glyph unicode="y" horiz-adv-x="1069" d="M29 1104h338l151 -639q8 -35 13.5 -67.5t7.5 -55.5q2 -29 2 -51h4q2 23 6 51q4 23 9 55.5t15 67.5l168 639h299l-495 -1544h-336l176 440z" />
<glyph unicode="z" horiz-adv-x="899" d="M51 0l375 897h-338v207h733l-356 -897h364v-207h-778z" />
<glyph unicode="{" horiz-adv-x="829" d="M74 600v164q37 0 68.5 9t56 30.5t39 58.5t14.5 92v289q0 109 42 179.5t109.5 111.5t154.5 57.5t179 16.5v-160q-113 0 -162 -44t-49 -142v-334q0 -111 -54 -170.5t-140 -75.5v-2v-2q86 -16 140 -76.5t54 -175.5v-336q0 -98 49.5 -142t161.5 -44v-160q-92 0 -179 16.5 t-154.5 57.5t-109.5 111.5t-42 179.5v290q0 59 -14.5 97.5t-39 61t-57 31.5t-67.5 11z" />
<glyph unicode="|" horiz-adv-x="509" d="M131 -440v2048h248v-2048h-248z" />
<glyph unicode="}" horiz-adv-x="829" d="M92 -96q111 0 161 44t50 142v336q0 115 54.5 175.5t140.5 76.5v2q-2 2 0 2q-86 16 -140.5 75.5t-54.5 170.5v334q0 98 -50 142t-161 44v160q92 0 179 -16.5t155 -57.5t108.5 -111.5t40.5 -179.5v-289q0 -55 14.5 -92t39 -58.5t57.5 -30.5t70 -9v-164q-37 -2 -70 -11 t-57.5 -31.5t-39 -60.5t-14.5 -98v-290q0 -109 -40.5 -179.5t-108.5 -111.5t-155 -57.5t-179 -16.5v160z" />
<glyph unicode="~" horiz-adv-x="1255" d="M152 733q35 72 87 120t148 58q68 6 122 -15.5t104.5 -48t99.5 -48t104 -15.5q80 8 125 47t70 99l92 -201q-51 -145 -240 -168q-66 -6 -120 14.5t-105 47t-102.5 48t-108.5 15.5q-76 -8 -121 -53t-67 -98z" />
<glyph unicode="&#xa1;" horiz-adv-x="677" d="M168 -440l68 903h243l70 -903h-381zM176 803q0 76 53.5 129t128.5 53q76 0 129.5 -53t53.5 -129t-53.5 -129t-129.5 -53t-129 53t-53 129z" />
<glyph unicode="&#xa2;" d="M172 713q0 102 25.5 185t71.5 143.5t109.5 98.5t137.5 52l-20 217h186l-18 -209q76 -4 126 -21.5t84 -41.5l-61 -156q-25 16 -55.5 25.5t-73.5 9.5q-104 0 -154.5 -80t-50.5 -219q0 -147 53.5 -224t151.5 -77q41 0 72.5 10t56.5 27l64 -172q-29 -23 -81.5 -41.5 t-136.5 -22.5l23 -217h-193l25 225q-156 31 -249 153t-93 335z" />
<glyph unicode="&#xa3;" d="M121 645v184h149q-12 47 -22 104.5t-10 119.5q0 72 26.5 139.5t81.5 120.5t138 85t196 32q129 0 219 -26t137 -54l-69 -195q-29 16 -83.5 32.5t-123.5 16.5q-117 0 -168 -63.5t-51 -167.5q0 -68 20 -144h279v-184h-250q8 -35 10 -68.5t2 -68.5t-8 -73t-19.5 -71.5 t-23.5 -60.5t-21 -39h523v-264h-930q104 117 162.5 241t58.5 246q0 43 -6 80t-16 78h-201z" />
<glyph unicode="&#xa4;" d="M92 322l141 141q-35 51 -55 112.5t-20 126.5q0 68 20.5 128.5t54.5 111.5l-141 141l105 105l141 -141q104 76 240 75q135 0 239 -75l141 141l105 -105l-141 -141q76 -104 75 -240q0 -135 -75 -239l141 -141l-105 -105l-141 141q-51 -35 -111.5 -55t-127.5 -20 q-66 0 -127.5 20.5t-112.5 54.5l-141 -141zM354 702q0 -47 17.5 -87t48.5 -70.5t70.5 -48t87.5 -17.5q47 0 88 17.5t70.5 48t47 70.5t17.5 87t-17.5 88t-47 72t-70.5 48.5t-88 17.5t-87 -17.5t-71 -48.5t-48.5 -72t-17.5 -88z" />
<glyph unicode="&#xa5;" d="M51 1409h326l211 -547h4l221 547h291l-242 -512l201 14v-135l-248 17l-80 -168l328 14v-135l-334 16v-520h-303v520l-336 -16v135l330 -14l-80 168l-250 -17v135l203 -14z" />
<glyph unicode="&#xa6;" horiz-adv-x="509" d="M131 377h248v-817h-248v817zM131 791v817h248v-817h-248z" />
<glyph unicode="&#xa7;" d="M133 551q0 59 19.5 110.5t50 94.5t70.5 76.5t83 60.5q-51 53 -76.5 105.5t-25.5 127.5q0 59 24.5 112.5t69.5 94.5t110.5 65.5t149.5 24.5q111 0 185.5 -22.5t124.5 -54.5l-68 -168q-29 18 -74 35.5t-104 17.5q-61 0 -97 -30t-36 -83q0 -41 19.5 -76.5t84.5 -89.5 l201 -170q98 -84 139 -158.5t41 -172.5q0 -109 -68.5 -194t-162.5 -142q72 -68 97 -130.5t25 -131.5q0 -63 -26.5 -120t-75.5 -98t-118.5 -65.5t-155.5 -24.5q-125 0 -199 23.5t-127 58.5l72 189q31 -23 82 -43.5t112 -20.5q63 0 104.5 30t41.5 81q0 35 -14.5 67.5 t-69.5 79.5l-226 189q-102 86 -142 166t-40 186zM362 596q0 -59 24 -103t77 -92l190 -159q53 35 87 77.5t34 100.5q0 53 -19.5 97t-78.5 95l-195 166q-47 -29 -83 -74t-36 -108z" />
<glyph unicode="&#xa8;" horiz-adv-x="507" d="M-86 1356q0 53 41 89t98 36t99.5 -36t42.5 -89t-42 -88t-100 -35q-57 0 -98 35t-41 88zM311 1356q0 53 41 89t101 36q57 0 99 -36t42 -89t-42 -88t-99 -35q-59 0 -100.5 35t-41.5 88z" />
<glyph unicode="&#xa9;" horiz-adv-x="1642" d="M94 705q0 150 57.5 281.5t157 230t231.5 156t281 57.5q150 0 282 -57.5t231.5 -156t156.5 -230.5t57 -281q0 -152 -57 -284t-156.5 -230.5t-231.5 -156t-282 -57.5t-281.5 57.5t-231 156t-157 230.5t-57.5 284zM221 705q0 -125 47 -235t128 -191.5t190.5 -129 t234.5 -47.5t234.5 47.5t191.5 129t128 191.5t46 235q0 123 -46 232.5t-128 191t-191.5 130t-234.5 48.5t-234.5 -48.5t-190.5 -130t-128 -191t-47 -232.5zM399 709q0 88 34 165.5t92.5 136t136 92.5t165.5 34q106 0 184.5 -41t139.5 -111l-102 -86q-45 47 -100.5 76 t-121.5 29q-59 0 -112 -24t-93 -63.5t-62.5 -93t-22.5 -114.5t22.5 -114.5t62.5 -93.5t93 -63.5t112 -23.5q66 0 121.5 27.5t100.5 76.5l106 -86q-68 -74 -147.5 -112.5t-180.5 -38.5q-88 0 -165.5 33.5t-136 91t-92.5 135.5t-34 168z" />
<glyph unicode="&#xaa;" horiz-adv-x="776" d="M74 915q0 72 32.5 119t89 75t129 42t152.5 20v29q0 49 -30.5 69.5t-90.5 20.5q-51 0 -101 -13t-87 -30l-47 123q41 16 109.5 34.5t164.5 18.5q63 0 115.5 -13t90.5 -44t59.5 -80t21.5 -121v-420q-47 -23 -118.5 -38t-166.5 -15q-323 0 -323 223zM272 922q0 -61 36 -85 t95 -24q49 0 74 12v244q-90 -10 -147.5 -38.5t-57.5 -108.5z" />
<glyph unicode="&#xab;" horiz-adv-x="1120" d="M82 684l305 485l172 -102l-240 -383l240 -383l-172 -100zM526 684l305 485l175 -102l-242 -383l242 -383l-175 -100z" />
<glyph unicode="&#xac;" d="M162 580v204h831v-512h-213v308h-618z" />
<glyph unicode="&#xad;" horiz-adv-x="729" d="M98 569v236h533v-236h-533z" />
<glyph unicode="&#xae;" horiz-adv-x="1642" d="M94 705q0 150 57.5 281.5t157 230t231.5 156t281 57.5q150 0 282 -57.5t231.5 -156t156.5 -230.5t57 -281q0 -152 -57 -284t-156.5 -230.5t-231.5 -156t-282 -57.5t-281.5 57.5t-231 156t-157 230.5t-57.5 284zM221 705q0 -125 47 -235t128 -191.5t190.5 -129 t234.5 -47.5t234.5 47.5t191.5 129t128 191.5t46 235q0 123 -46 233.5t-128 192t-191.5 130t-234.5 48.5t-234.5 -48.5t-190.5 -130t-128 -192t-47 -233.5zM575 299v803q88 47 216 47q74 0 129 -19.5t93 -52.5t57.5 -78t19.5 -94q0 -100 -60.5 -159.5t-155.5 -75.5l263 -371 h-168l-240 358h-18v-358h-136zM711 750h51q86 0 137 32.5t51 120.5q0 41 -15 67.5t-40 41t-55.5 19.5t-59.5 5q-39 0 -69 -10v-276z" />
<glyph unicode="&#xaf;" horiz-adv-x="507" d="M-80 1278v166h668v-166h-668z" />
<glyph unicode="&#x2c9;" horiz-adv-x="507" d="M-80 1278v166h668v-166h-668z" />
<glyph unicode="&#xb0;" horiz-adv-x="849" d="M102 1112q0 68 26 126t70 101t102 69t126 26t126 -26t101 -69t69 -101t26 -126t-26 -126t-69 -102t-101 -70t-126 -26t-126 26t-102 70t-70 102t-26 126zM252 1112q0 -72 51 -123t123 -51q35 0 66.5 13.5t55 37t37 55t13.5 68.5t-13.5 67.5t-37 54t-55 37t-66.5 13.5 q-72 0 -123 -50t-51 -122z" />
<glyph unicode="&#xb1;" d="M162 137v189h831v-189h-831zM162 741v187h313v305h205v-305h313v-187h-313v-307h-205v307h-313z" />
<glyph unicode="&#xb2;" horiz-adv-x="786" d="M70 535l303 436q20 31 34.5 54.5t23.5 41.5t12 35.5t3 38.5q0 47 -32.5 80.5t-106.5 33.5q-43 0 -80 -9t-65 -21l-53 143q45 23 112.5 38t138.5 15q88 0 147.5 -22.5t96.5 -57t52.5 -81t15.5 -91.5q0 -55 -28 -113.5t-89 -135.5l-160 -203h289v-182h-614z" />
<glyph unicode="&#xb3;" horiz-adv-x="786" d="M82 578l57 153q33 -16 75 -27.5t97 -11.5q72 0 106 31t34 82q0 39 -16.5 63.5t-45.5 39t-66.5 19.5t-78.5 5v123q98 10 143 42.5t45 80.5q0 41 -31.5 64.5t-89.5 23.5q-35 0 -73.5 -8.5t-73.5 -24.5l-55 137q49 25 106 39t143 14q133 0 212 -57t79 -162q0 -66 -39 -109.5 t-82 -66.5q66 -27 111 -78t45 -143q0 -63 -25.5 -115.5t-69.5 -89.5t-106.5 -57.5t-136.5 -20.5q-88 0 -150.5 13.5t-113.5 40.5z" />
<glyph unicode="&#xb4;" horiz-adv-x="507" d="M80 1217l139 294q35 20 82 31.5t92 11.5t80 -12t45 -39l-264 -286h-174z" />
<glyph unicode="&#xb5;" horiz-adv-x="1179" d="M121 -440v1544h319v-893q31 -16 66 -25.5t82 -9.5q59 0 92 7t59 22v899h320v-1036q-80 -43 -165 -64.5t-208 -21.5q-68 0 -132.5 15t-113.5 38v-475h-319z" />
<glyph unicode="&#x3bc;" horiz-adv-x="1179" d="M121 -440v1544h319v-893q31 -16 66 -25.5t82 -9.5q59 0 92 7t59 22v899h320v-1036q-80 -43 -165 -64.5t-208 -21.5q-68 0 -132.5 15t-113.5 38v-475h-319z" />
<glyph unicode="&#xb6;" d="M47 997q0 111 40 189t109.5 128t161 72.5t195.5 22.5h522v-141h-69v-1708h-195v1708h-213v-1708h-197v1048q-160 27 -257 128t-97 261z" />
<glyph unicode="&#xb7;" horiz-adv-x="577" d="M106 705q0 76 53.5 129t129.5 53t129 -53.5t53 -128.5q0 -76 -53 -129.5t-129 -53.5t-129.5 53.5t-53.5 129.5z" />
<glyph unicode="&#x2219;" horiz-adv-x="577" d="M106 705q0 76 53.5 129t129.5 53t129 -53.5t53 -128.5q0 -76 -53 -129.5t-129 -53.5t-129.5 53.5t-53.5 129.5z" />
<glyph unicode="&#xb8;" horiz-adv-x="507" d="M-33 -420l56 101q141 -14 227 5t86 58q0 37 -53.5 49t-190.5 2l53 88q113 10 189 4t122 -24.5t65.5 -48t19.5 -68.5q0 -104 -155 -147.5t-419 -18.5z" />
<glyph unicode="&#xb9;" horiz-adv-x="786" d="M127 1278q127 16 195.5 54t93.5 77h157v-874h-221v645q-37 -10 -86 -18.5t-112 -12.5z" />
<glyph unicode="&#xba;" horiz-adv-x="776" d="M61 1061q0 78 21.5 144.5t62.5 115.5t101.5 76.5t140.5 27.5t141.5 -27.5t103.5 -76.5t62.5 -115.5t20.5 -144.5t-20.5 -145.5t-62.5 -116.5t-102.5 -77t-140.5 -28t-141.5 28t-103.5 77t-62.5 116.5t-20.5 145.5zM276 1065q0 -96 21.5 -160.5t91.5 -64.5q35 0 56.5 17 t34 47t16.5 71t4 88q0 49 -4 91t-16.5 72.5t-34 48t-56.5 17.5t-57.5 -17.5t-34.5 -48t-16.5 -72.5t-4.5 -89z" />
<glyph unicode="&#xbb;" horiz-adv-x="1120" d="M115 301l241 383l-241 383l174 102l305 -485l-305 -483zM561 301l240 383l-240 383l174 102l303 -485l-303 -483z" />
<glyph unicode="&#xbc;" horiz-adv-x="1740" d="M70 1278q121 16 193.5 54t96.5 77h158v-874h-219v645q-39 -10 -89 -18.5t-114 -12.5zM457 16l637 1448l170 -69l-637 -1450zM1008 168v131l338 575h210v-581h66v-125h-66v-168h-210v168h-338zM1137 293h209v244v90q0 23 2 41q-2 0 -21.5 -41t-46.5 -88z" />
<glyph unicode="&#xbd;" horiz-adv-x="1740" d="M70 1278q121 16 193.5 54t96.5 77h158v-874h-219v645q-39 -10 -89 -18.5t-114 -12.5zM424 16l637 1448l170 -69l-637 -1450zM1008 0l305 430q47 66 59 102.5t12 73.5q0 51 -31.5 83t-107.5 32q-41 0 -69.5 -9.5t-57.5 -21.5l-55 144q41 20 96 36.5t139 16.5 q88 0 147.5 -22.5t96.5 -59.5t52.5 -82t15.5 -90q0 -55 -27 -115.5t-88 -136.5l-162 -199h289v-182h-614z" />
<glyph unicode="&#xbe;" horiz-adv-x="1740" d="M80 578l59 153q31 -16 73 -27.5t99 -11.5q72 0 106 31t34 82q0 39 -16.5 63.5t-45.5 39t-66.5 19.5t-80.5 5v123q98 10 144 42.5t46 80.5q0 41 -31.5 64.5t-89.5 23.5q-35 0 -73.5 -8.5t-73.5 -24.5l-55 137q47 25 105 39t144 14q133 0 212 -57t79 -162q0 -66 -39 -109.5 t-82 -66.5q66 -27 111 -78t45 -143q0 -63 -25.5 -115.5t-69.5 -89.5t-106.5 -57.5t-136.5 -20.5q-88 0 -151.5 13.5t-114.5 40.5zM518 16l637 1448l170 -69l-637 -1450zM1018 168v131l338 575h211v-581h65v-125h-65v-168h-211v168h-338zM1147 293h209v244v46q0 24 2 42 q0 23 2 43h-4q-8 -18 -19 -41q-10 -18 -21 -42t-26 -46z" />
<glyph unicode="&#xbf;" horiz-adv-x="921" d="M74 -106q0 74 30.5 130t76.5 99t98.5 70.5t97.5 42.5l20 229h242l33 -322q-53 -10 -100.5 -29.5t-83 -47t-57 -62.5t-21.5 -78q0 -68 46 -116t154 -48q66 0 120 17.5t85 34.5l82 -191q-61 -33 -151.5 -56.5t-200.5 -23.5q-111 0 -198 24.5t-147.5 71t-93 111t-32.5 144.5 zM336 805q0 76 53 129t129 53t129 -53t53 -129t-53 -129t-129 -53t-129 53t-53 129z" />
<glyph unicode="&#xc0;" horiz-adv-x="1255" d="M8 0l459 1409h324l456 -1409h-342l-86 301h-424l-90 -301h-297zM289 1800q10 27 45 40t80 13t92 -12t82 -33l139 -292h-174zM444 492h330l-125 458q-10 37 -16 68t-10 53q-4 25 -7 47h-4q-2 -23 -8 -47q-4 -23 -11 -53.5t-18 -67.5z" />
<glyph unicode="&#xc1;" horiz-adv-x="1255" d="M8 0l459 1409h324l456 -1409h-342l-86 301h-424l-90 -301h-297zM444 492h330l-125 458q-10 37 -16 68t-10 53q-4 25 -7 47h-4q-2 -23 -8 -47q-4 -23 -11 -53.5t-18 -67.5zM512 1516l141 292q35 20 81 32.5t91 12.5t80 -13t45 -40l-262 -284h-176z" />
<glyph unicode="&#xc2;" horiz-adv-x="1255" d="M8 0l459 1409h324l456 -1409h-342l-86 301h-424l-90 -301h-297zM322 1575l215 217q39 39 90 39q53 0 92 -39l213 -217l-86 -78l-219 156l-219 -156zM444 492h330l-125 458q-10 37 -16 68t-10 53q-4 25 -7 47h-4q-2 -23 -8 -47q-4 -23 -11 -53.5t-18 -67.5z" />
<glyph unicode="&#xc3;" horiz-adv-x="1255" d="M8 0l459 1409h324l456 -1409h-342l-86 301h-424l-90 -301h-297zM297 1649q23 49 60.5 80.5t103.5 37.5q45 4 83 -9t71.5 -30.5t66.5 -32t70 -9.5q53 6 82.5 32.5t46.5 65.5l67 -144q-35 -96 -162 -110q-45 -4 -82.5 9t-72.5 29.5t-69 31t-73 10.5q-53 -4 -81.5 -34 t-45.5 -69zM444 492h330l-125 458q-10 37 -16 68t-10 53q-4 25 -7 47h-4q-2 -23 -8 -47q-4 -23 -11 -53.5t-18 -67.5z" />
<glyph unicode="&#xc4;" horiz-adv-x="1255" d="M8 0l459 1409h324l456 -1409h-342l-86 301h-424l-90 -301h-297zM289 1647q0 53 41 89t98 36t99 -36t42 -89t-42 -88t-99 -35t-98 35t-41 88zM444 492h330l-125 458q-10 37 -16 68t-10 53q-4 25 -7 47h-4q-2 -23 -8 -47q-4 -23 -11 -53.5t-18 -67.5zM688 1647q0 53 41 89 t98 36t99.5 -36t42.5 -89t-42 -88t-100 -35q-57 0 -98 35t-41 88z" />
<glyph unicode="&#xc5;" horiz-adv-x="1255" d="M8 0l459 1409h324l456 -1409h-342l-86 301h-424l-90 -301h-297zM444 492h330l-125 458q-10 37 -16 68t-10 53q-4 25 -7 47h-4q-2 -23 -8 -47q-4 -23 -11 -53.5t-18 -67.5zM446 1683q0 76 53.5 128.5t127.5 52.5q76 0 129 -52.5t53 -128.5t-53.5 -128t-128.5 -52 q-74 0 -127.5 52t-53.5 128zM543 1683q0 -35 24.5 -59.5t59.5 -24.5t60.5 25t25.5 59q0 35 -25.5 59.5t-60.5 24.5t-59.5 -24.5t-24.5 -59.5z" />
<glyph unicode="&#xc6;" horiz-adv-x="1552" d="M-20 0l589 1409h787v-223h-426l86 -359h340v-217h-293l92 -387h344v-223h-618l-60 301h-426l-116 -301h-299zM471 496h328l-88 479q-4 27 -7.5 51.5t-5.5 44.5q-2 23 -2 43h-4q-4 -20 -10 -43q-4 -20 -12 -45t-19 -51z" />
<glyph unicode="&#xc7;" horiz-adv-x="1005" d="M90 705q0 141 34 271t102.5 231.5t174 162t246.5 60.5q104 0 178 -22t127 -60l-67 -201q-29 18 -68 30.5t-98 12.5q-82 0 -136.5 -42t-88 -109.5t-48 -154.5t-14.5 -177t15.5 -175.5t50 -152t88 -106.5t131.5 -40q59 0 93 11.5t69 31.5l75 -213q-109 -84 -309 -83 q-143 0 -247.5 59t-173 159.5t-101.5 232t-33 274.5zM272 -420l56 101q139 -14 226 5t87 58q0 37 -53 49t-193 2l54 88q113 10 189.5 4t122.5 -24.5t65.5 -48t19.5 -68.5q0 -53 -40 -90t-115 -57.5t-181.5 -25.5t-237.5 7z" />
<glyph unicode="&#xc8;" horiz-adv-x="937" d="M133 0v1409h721v-223h-387v-359h338v-217h-338v-387h387v-223h-721zM193 1800q10 27 44.5 40t79.5 13t92.5 -12t82.5 -33l139 -292h-174z" />
<glyph unicode="&#xc9;" horiz-adv-x="937" d="M133 0v1409h721v-223h-387v-359h338v-217h-338v-387h387v-223h-721zM354 1516l140 292q35 20 82 32.5t92 12.5t79.5 -13t45.5 -40l-265 -284h-174z" />
<glyph unicode="&#xca;" horiz-adv-x="937" d="M133 0v1409h721v-223h-387v-359h338v-217h-338v-387h387v-223h-721zM172 1575l215 217q39 39 90 39q53 0 92 -39l215 -217l-88 -78l-217 156l-219 -156z" />
<glyph unicode="&#xcb;" horiz-adv-x="937" d="M135 0v1409h719v-223h-387v-359h338v-217h-338v-387h387v-223h-719zM150 1647q0 53 40.5 89t98.5 36q57 0 99 -36t42 -89t-42 -88t-99 -35t-98 35t-41 88zM547 1647q0 53 41 89t100 36q57 0 99 -36t42 -89t-42 -88t-99 -35q-59 0 -100 35t-41 88z" />
<glyph unicode="&#xcc;" horiz-adv-x="606" d="M10 1800q10 27 45 40t80 13t92 -12t82 -33l140 -292h-175zM135 0v1409h334v-1409h-334z" />
<glyph unicode="&#xcd;" horiz-adv-x="606" d="M137 0v1409h332v-1409h-332zM158 1516l139 292q35 20 82 32.5t92 12.5t80 -13t45 -40l-264 -284h-174z" />
<glyph unicode="&#xce;" horiz-adv-x="606" d="M-2 1575l215 217q37 37 90 37t90 -37l215 -217l-86 -78l-219 156l-219 -156zM137 0v1409h332v-1409h-332z" />
<glyph unicode="&#xcf;" horiz-adv-x="606" d="M-37 1647q0 53 41 89t98 36t99.5 -36t42.5 -89t-42 -88t-100 -35q-57 0 -98 35t-41 88zM135 0v1409h332v-1409h-332zM362 1647q0 53 41 89t99 36q57 0 99 -36t42 -89t-42 -88t-99 -35t-98.5 35t-41.5 88z" />
<glyph unicode="&#xd0;" horiz-adv-x="1312" d="M68 655v193h102v500q78 35 180.5 58.5t231.5 23.5q172 0 293.5 -54.5t198.5 -152t113 -228.5t36 -284q0 -152 -34 -285t-108.5 -232.5t-193.5 -156.5t-291 -57q-137 0 -245.5 21.5t-180.5 59.5v594h-102zM494 219q18 -6 45.5 -10t56.5 -4q76 0 132 27.5t92 89t53.5 159 t17.5 236.5q0 262 -71.5 381t-229.5 119q-51 0 -96 -17v-352h163v-193h-163v-436z" />
<glyph unicode="&#xd1;" horiz-adv-x="1339" d="M133 0v1409h293l432 -723q16 -29 28.5 -52.5t22.5 -41.5l21 -41h4q-2 20 -4 43q-2 20 -3 45t-1 53v717h280v-1409h-256l-469 791q-35 55 -53 100q-10 23 -20 47h-5q2 -23 5 -47q2 -23 3 -50.5t1 -56.5v-784h-279zM338 1649q23 49 59.5 80.5t104.5 37.5q45 4 82 -9 t70.5 -30.5t66.5 -32t72 -9.5q53 6 82.5 32.5t46.5 65.5l67 -144q-18 -47 -57 -74.5t-105 -35.5q-47 -4 -83.5 9t-71.5 29.5t-69 31t-73 10.5q-53 -4 -81.5 -34t-45.5 -69z" />
<glyph unicode="&#xd2;" horiz-adv-x="1282" d="M90 705q0 150 31 281.5t97.5 230t171 156t251.5 57.5t251.5 -57.5t171 -156t97.5 -230.5t31 -281q0 -150 -31 -282t-97.5 -230.5t-171 -155.5t-251.5 -57t-251.5 57t-171 155.5t-97.5 230.5t-31 282zM344 1800q10 27 45 40t80 13t91 -12t81 -33l141 -292h-176zM428 717 q0 -90 8 -179t30.5 -159t64.5 -113t110 -43t110 43t65.5 113t30.5 159t7 179t-8 178t-31.5 158.5t-65.5 113.5t-108 43q-68 0 -108.5 -43t-64.5 -113.5t-32 -158.5t-8 -178z" />
<glyph unicode="&#xd3;" horiz-adv-x="1282" d="M90 705q0 150 31 281.5t97.5 230t171 156t251.5 57.5t251.5 -57.5t171 -156t97.5 -230.5t31 -281q0 -150 -31 -282t-97.5 -230.5t-171 -155.5t-251.5 -57t-251.5 57t-171 155.5t-97.5 230.5t-31 282zM428 717q0 -90 8 -179t30.5 -159t64.5 -113t110 -43t110 43t65.5 113 t30.5 159t7 179t-8 178t-31.5 158.5t-65.5 113.5t-108 43q-68 0 -108.5 -43t-64.5 -113.5t-32 -158.5t-8 -178zM496 1516l139 292q35 20 82 32.5t91 12.5t79 -13t47 -40l-264 -284h-174z" />
<glyph unicode="&#xd4;" horiz-adv-x="1282" d="M90 705q0 150 31 281.5t97.5 230t171 156t251.5 57.5t251.5 -57.5t171 -156t97.5 -230.5t31 -281q0 -150 -31 -282t-97.5 -230.5t-171 -155.5t-251.5 -57t-251.5 57t-171 155.5t-97.5 230.5t-31 282zM336 1575l215 217q39 39 90 39q53 0 92 -39l215 -217l-88 -78 l-217 156l-219 -156zM428 717q0 -90 8 -179t30.5 -159t64.5 -113t110 -43t110 43t65.5 113t30.5 159t7 179t-8 178t-31.5 158.5t-65.5 113.5t-108 43q-68 0 -108.5 -43t-64.5 -113.5t-32 -158.5t-8 -178z" />
<glyph unicode="&#xd5;" horiz-adv-x="1282" d="M90 705q0 150 31 281.5t97.5 230t171 156t251.5 57.5t251.5 -57.5t171 -156t97.5 -230.5t31 -281q0 -150 -31 -282t-97.5 -230.5t-171 -155.5t-251.5 -57t-251.5 57t-171 155.5t-97.5 230.5t-31 282zM315 1649q23 49 61 80.5t103 37.5q45 4 82 -9t71 -30.5t66.5 -32 t71.5 -9.5q53 6 83 32.5t46 65.5l68 -144q-35 -96 -162 -110q-45 -4 -83 9t-73 29.5t-68.5 31t-72.5 10.5q-53 -4 -82 -34t-45 -69zM428 717q0 -90 8 -179t30.5 -159t64.5 -113t110 -43t110 43t65.5 113t30.5 159t7 179t-8 178t-31.5 158.5t-65.5 113.5t-108 43 q-68 0 -108.5 -43t-64.5 -113.5t-32 -158.5t-8 -178z" />
<glyph unicode="&#xd6;" horiz-adv-x="1282" d="M90 705q0 150 31 281.5t97.5 230t171 156t251.5 57.5t251.5 -57.5t171 -156t97.5 -230.5t31 -281q0 -150 -31 -282t-97.5 -230.5t-171 -155.5t-251.5 -57t-251.5 57t-171 155.5t-97.5 230.5t-31 282zM301 1647q0 53 41 89t100 36q57 0 99.5 -36t42.5 -89t-42 -88 t-100 -35q-59 0 -100 35t-41 88zM428 717q0 -90 8 -179t30.5 -159t64.5 -113t110 -43t110 43t65.5 113t30.5 159t7 179t-8 178t-31.5 158.5t-65.5 113.5t-108 43q-68 0 -108.5 -43t-64.5 -113.5t-32 -158.5t-8 -178zM700 1647q0 53 41 89t99 36q59 0 100 -36t41 -89t-41 -88 t-100 -35q-57 0 -98.5 35t-41.5 88z" />
<glyph unicode="&#xd7;" d="M152 985l139 137l287 -305l286 305l137 -137l-288 -307l291 -307l-140 -138l-286 306l-287 -303l-137 135l286 307z" />
<glyph unicode="&#xd8;" horiz-adv-x="1286" d="M92 705q0 150 31 281.5t98.5 230t172 156t251.5 57.5q100 0 179 -29t141 -80l108 172l90 -57l-121 -189q78 -100 115 -240.5t37 -301.5q0 -150 -30.5 -282t-97.5 -230.5t-170 -155.5t-251 -57q-106 0 -189 30.5t-145 85.5l-114 -178l-91 57l127 199q-72 100 -106.5 236.5 t-34.5 294.5zM408 717q0 -59 7 -116.5t23 -106.5l383 602q-29 63 -70.5 100t-105.5 37q-72 0 -117 -43t-72.5 -114.5t-37.5 -165t-10 -193.5zM465 340q27 -66 71 -102.5t109 -36.5q72 0 117 43t71.5 114.5t36 164.5t9.5 194q0 59 -7.5 116.5t-23.5 108.5z" />
<glyph unicode="&#xd9;" horiz-adv-x="1245" d="M133 416v993h334v-991q0 -94 49 -141.5t121 -47.5t120 47.5t48 143.5v989h307v-993q0 -100 -37 -181t-102.5 -138.5t-154.5 -88.5t-195 -31q-104 0 -194.5 31t-156 87.5t-102.5 137.5t-37 183zM350 1800q10 27 45 40t80 13t92 -12t82 -33l139 -292h-174z" />
<glyph unicode="&#xda;" horiz-adv-x="1245" d="M133 416v993h334v-991q0 -94 49 -141.5t121 -47.5t120 47.5t48 143.5v989h307v-993q0 -100 -37 -181t-102.5 -138.5t-154.5 -88.5t-195 -31q-104 0 -194.5 31t-156 87.5t-102.5 137.5t-37 183zM487 1516l140 292q35 20 82 32.5t92 12.5t79.5 -13t45.5 -40l-264 -284h-175 z" />
<glyph unicode="&#xdb;" horiz-adv-x="1245" d="M133 416v993h334v-991q0 -94 49 -141.5t121 -47.5t120 47.5t48 143.5v989h307v-993q0 -100 -37 -181t-102.5 -138.5t-154.5 -88.5t-195 -31q-104 0 -194.5 31t-156 87.5t-102.5 137.5t-37 183zM328 1575l215 217q39 39 90 39q53 0 92 -39l215 -217l-88 -78l-217 156 l-219 -156z" />
<glyph unicode="&#xdc;" horiz-adv-x="1245" d="M133 416v993h334v-991q0 -94 49 -141.5t121 -47.5t120 47.5t48 143.5v989h307v-993q0 -100 -37 -181t-102.5 -138.5t-154.5 -88.5t-195 -31q-104 0 -194.5 31t-156 87.5t-102.5 137.5t-37 183zM297 1647q0 53 41 89t98 36t99.5 -36t42.5 -89t-42 -88t-100 -35 q-57 0 -98 35t-41 88zM696 1647q0 53 41 89t99 36q57 0 99 -36t42 -89t-42 -88t-99 -35t-98.5 35t-41.5 88z" />
<glyph unicode="&#xdd;" horiz-adv-x="1087" d="M4 1409h354l201 -532h4l213 532h309l-376 -817v-592h-332v592zM434 1516l141 292q35 20 81 32.5t91.5 12.5t80 -13t44.5 -40l-262 -284h-176z" />
<glyph unicode="&#xde;" horiz-adv-x="1177" d="M133 0v1409h326v-229q27 6 58.5 10t55.5 4q141 0 241.5 -34t163 -94t92.5 -143t30 -182q0 -98 -34 -182t-105.5 -145.5t-184 -93t-270.5 -25.5l-47 2v-297h-326zM459 494l37 -2q156 -10 222 59.5t66 187.5q0 131 -60 199t-173 68q-45 0 -92 -11v-501z" />
<glyph unicode="&#xdf;" horiz-adv-x="1232" d="M125 0v1036q0 123 28.5 230.5t89 187.5t151.5 126t218 46q113 0 201 -40t147.5 -107.5t91 -156.5t31.5 -189q0 -47 -7 -98.5t-17 -86.5q-86 -16 -129 -52t-43 -105q0 -47 24.5 -82t89.5 -84q80 -59 120 -126t40 -165q0 -84 -30.5 -148.5t-83 -109.5t-122 -68.5 t-147.5 -23.5t-137 16t-94 45l51 207q23 -16 51.5 -25.5t67.5 -9.5q53 0 91 34t38 91q0 51 -25.5 87t-85.5 77q-72 47 -108.5 108.5t-36.5 151.5q0 94 49 155.5t123 92.5q8 27 10 53.5t2 54.5q0 291 -162 291q-88 0 -129 -86t-41 -266v-1061h-317z" />
<glyph unicode="&#xe0;" horiz-adv-x="1105" d="M70 328q0 106 49 178t134 117t196.5 68.5t236.5 35.5v51q0 86 -53 117t-141 31q-80 0 -157 -21.5t-130 -46.5l-70 182q59 25 163.5 54.5t252.5 29.5q94 0 173 -21.5t137.5 -68.5t91 -123.5t32.5 -189.5v-660q-70 -37 -179.5 -59t-252.5 -22q-483 0 -483 348zM274 1503 q10 27 45 39t80 12t91.5 -11t80.5 -32l142 -294h-176zM369 340q0 -98 52 -141t148 -43q72 0 117 22v402q-72 -6 -131 -20.5t-100 -41t-63.5 -69.5t-22.5 -109z" />
<glyph unicode="&#xe1;" horiz-adv-x="1105" d="M70 328q0 106 49 178t134 117t196.5 68.5t236.5 35.5v51q0 86 -53 117t-141 31q-80 0 -157 -21.5t-130 -46.5l-70 182q59 25 163.5 54.5t252.5 29.5q94 0 173 -21.5t137.5 -68.5t91 -123.5t32.5 -189.5v-660q-70 -37 -179.5 -59t-252.5 -22q-483 0 -483 348zM369 340 q0 -98 52 -141t148 -43q72 0 117 22v402q-72 -6 -131 -20.5t-100 -41t-63.5 -69.5t-22.5 -109zM459 1217l139 294q35 20 82 31.5t91 11.5t79 -12t47 -39l-264 -286h-174z" />
<glyph unicode="&#xe2;" horiz-adv-x="1105" d="M70 328q0 106 49 178t134 117t196.5 68.5t236.5 35.5v51q0 86 -53 117t-141 31q-80 0 -157 -21.5t-130 -46.5l-70 182q59 25 163.5 54.5t252.5 29.5q94 0 173 -21.5t137.5 -68.5t91 -123.5t32.5 -189.5v-660q-70 -37 -179.5 -59t-252.5 -22q-483 0 -483 348zM258 1278 l215 217q37 37 90 37q25 0 49.5 -9.5t42.5 -27.5l215 -217l-88 -80l-217 156l-219 -156zM369 340q0 -98 52 -141t148 -43q72 0 117 22v402q-72 -6 -131 -20.5t-100 -41t-63.5 -69.5t-22.5 -109z" />
<glyph unicode="&#xe3;" horiz-adv-x="1105" d="M70 328q0 106 49 178t134 117t196.5 68.5t236.5 35.5v51q0 86 -53 117t-141 31q-80 0 -157 -21.5t-130 -46.5l-70 182q59 25 163.5 54.5t252.5 29.5q94 0 173 -21.5t137.5 -68.5t91 -123.5t32.5 -189.5v-660q-70 -37 -179.5 -59t-252.5 -22q-483 0 -483 348zM229 1352 q23 47 61 79.5t103 38.5q45 4 83 -9t72 -30.5t66.5 -32t69.5 -9.5q55 6 84 32.5t45 65.5l68 -144q-35 -96 -162 -110q-45 -4 -83 9t-73 29.5t-68.5 31t-72.5 10.5q-53 -4 -82 -34t-45 -69zM369 340q0 -98 52 -141t148 -43q72 0 117 22v402q-72 -6 -131 -20.5t-100 -41 t-63.5 -69.5t-22.5 -109z" />
<glyph unicode="&#xe4;" horiz-adv-x="1105" d="M70 328q0 106 49 178t134 117t196.5 68.5t236.5 35.5v51q0 86 -53 117t-141 31q-80 0 -157 -21.5t-130 -46.5l-70 182q59 25 163.5 54.5t252.5 29.5q94 0 173 -21.5t137.5 -68.5t91 -123.5t32.5 -189.5v-660q-70 -37 -179.5 -59t-252.5 -22q-483 0 -483 348zM229 1356 q0 53 41 89t99 36q59 0 100 -36t41 -89t-41 -88t-100 -35q-57 0 -98.5 35t-41.5 88zM369 340q0 -98 52 -141t148 -43q72 0 117 22v402q-72 -6 -131 -20.5t-100 -41t-63.5 -69.5t-22.5 -109zM629 1356q0 53 41 89t98 36t99 -36t42 -89t-42 -88t-99 -35t-98 35t-41 88z" />
<glyph unicode="&#xe5;" horiz-adv-x="1105" d="M70 328q0 106 49 178t134 117t196.5 68.5t236.5 35.5v51q0 86 -53 117t-141 31q-80 0 -157 -21.5t-130 -46.5l-70 182q59 25 163.5 54.5t252.5 29.5q94 0 173 -21.5t137.5 -68.5t91 -123.5t32.5 -189.5v-660q-70 -37 -179.5 -59t-252.5 -22q-483 0 -483 348zM369 340 q0 -98 52 -141t148 -43q72 0 117 22v402q-72 -6 -131 -20.5t-100 -41t-63.5 -69.5t-22.5 -109zM387 1386q0 76 52.5 128.5t127.5 52.5q76 0 128.5 -52.5t52.5 -128.5t-52.5 -128t-128.5 -52t-128 52t-52 128zM483 1386q0 -35 24.5 -59t59.5 -24t59.5 24.5t24.5 58.5 q0 35 -24.5 59.5t-59.5 24.5t-59.5 -24.5t-24.5 -59.5z" />
<glyph unicode="&#xe6;" horiz-adv-x="1697" d="M70 326q0 104 48 174.5t131 117t192.5 72t234.5 37.5v51q0 84 -54.5 117t-140.5 33q-78 0 -152.5 -21.5t-127.5 -46.5l-68 180q59 29 160.5 56.5t247.5 27.5q96 0 176 -35.5t121 -115.5q53 74 140 112.5t175 38.5q240 0 356.5 -154.5t106.5 -437.5l-653 -92 q25 -244 260 -243q92 0 164.5 16t115.5 39l74 -193q-66 -35 -159 -57t-240 -22q-117 0 -201 46t-137 117q-41 -72 -120 -117.5t-216 -45.5q-211 0 -322.5 88t-111.5 258zM356 336q0 -94 44 -136t120 -42q70 0 112 41t42 112v267q-72 -8 -130.5 -21.5t-99.5 -41.5 t-64.5 -70.5t-23.5 -108.5zM942 600l377 55q-2 154 -50 217.5t-134 63.5q-90 0 -143.5 -82t-49.5 -254z" />
<glyph unicode="&#xe7;" horiz-adv-x="860" d="M82 555q0 139 36 245.5t98.5 178.5t144 108.5t174.5 36.5q102 0 167.5 -24.5t102.5 -55.5l-66 -176q-23 16 -53.5 29.5t-77.5 13.5q-104 0 -154.5 -91t-50.5 -261q0 -168 53.5 -260t149.5 -92q45 0 77 11t56 34l68 -193q-35 -35 -100.5 -57t-169.5 -22q-98 0 -181.5 37.5 t-144.5 110.5t-95 180.5t-34 246.5zM156 -420l57 101q139 -14 226 5t87 58q0 37 -53 49t-192 2l53 88q113 10 188.5 4t121.5 -24.5t65.5 -48t19.5 -68.5q0 -104 -154.5 -147.5t-418.5 -18.5z" />
<glyph unicode="&#xe8;" horiz-adv-x="1128" d="M82 555q0 129 32.5 234.5t96 180t157 114.5t212.5 40q242 0 359.5 -154.5t107.5 -434.5l-662 -95q16 -123 79.5 -182t186.5 -59q98 0 170 18.5t117 40.5l72 -199q-66 -33 -160 -56t-236 -23q-127 0 -226 39.5t-166.5 115.5t-103.5 181.5t-36 238.5zM268 1503q10 27 45 39 t80 12t91 -11t81 -32l142 -294h-177zM365 596l385 57q0 147 -47.5 215t-135.5 68q-98 0 -154 -84t-48 -256z" />
<glyph unicode="&#xe9;" horiz-adv-x="1128" d="M82 555q0 129 32.5 234.5t96 180t157 114.5t212.5 40q242 0 359.5 -154.5t107.5 -434.5l-662 -95q16 -123 79.5 -182t186.5 -59q98 0 170 18.5t117 40.5l72 -199q-66 -33 -160 -56t-236 -23q-127 0 -226 39.5t-166.5 115.5t-103.5 181.5t-36 238.5zM365 596l385 57 q0 147 -47.5 215t-135.5 68q-98 0 -154 -84t-48 -256zM465 1217l139 294q35 20 82 31.5t91 11.5t79 -12t47 -39l-264 -286h-174z" />
<glyph unicode="&#xea;" horiz-adv-x="1128" d="M82 555q0 129 32.5 234.5t96 180t157 114.5t212.5 40q242 0 359.5 -154.5t107.5 -434.5l-662 -95q16 -123 79.5 -182t186.5 -59q98 0 170 18.5t117 40.5l72 -199q-66 -33 -160 -56t-236 -23q-127 0 -226 39.5t-166.5 115.5t-103.5 181.5t-36 238.5zM268 1278l215 217 q37 37 90 37q55 0 93 -37l215 -217l-86 -80l-220 156l-219 -156zM365 596l385 57q0 147 -47.5 215t-135.5 68q-98 0 -154 -84t-48 -256z" />
<glyph unicode="&#xeb;" horiz-adv-x="1128" d="M82 555q0 129 32.5 234.5t96 180t157 114.5t212.5 40q242 0 359.5 -154.5t107.5 -434.5l-662 -95q16 -123 79.5 -182t186.5 -59q98 0 170 18.5t117 40.5l72 -199q-66 -33 -160 -56t-236 -23q-127 0 -226 39.5t-166.5 115.5t-103.5 181.5t-36 238.5zM240 1356q0 53 41 89 t98 36t99 -36t42 -89t-42 -88t-99 -35t-98 35t-41 88zM365 596l385 57q0 147 -47.5 215t-135.5 68q-98 0 -154 -84t-48 -256zM637 1356q0 53 41 89t98 36t99.5 -36t42.5 -89t-42 -88t-100 -35q-57 0 -98 35t-41 88z" />
<glyph unicode="&#xec;" horiz-adv-x="573" d="M-6 1503q10 27 45 39t80 12t92 -11t82 -32l139 -294h-174zM127 0v1104h319v-1104h-319z" />
<glyph unicode="&#xed;" horiz-adv-x="573" d="M127 0v1104h319v-1104h-319zM139 1217l140 294q35 20 82 31.5t92 11.5t79.5 -12t45.5 -39l-265 -286h-174z" />
<glyph unicode="&#xee;" horiz-adv-x="573" d="M-18 1278l213 217q37 37 92 37q53 0 90 -37l215 -217l-86 -80l-219 156l-219 -156zM127 0v1104h319v-1104h-319z" />
<glyph unicode="&#xef;" horiz-adv-x="573" d="M-53 1356q0 53 41 89t98 36t99 -36t42 -89t-42 -88t-99 -35t-98 35t-41 88zM127 0v1104h319v-1104h-319zM344 1356q0 53 41 89t100 36q57 0 98.5 -36t41.5 -89t-41 -88t-99 -35q-59 0 -100 35t-41 88z" />
<glyph unicode="&#xf0;" horiz-adv-x="1150" d="M82 547q0 117 29.5 220t88 181t143.5 123t196 45q35 0 56 -3t44 -9q-25 59 -49.5 110.5t-57.5 102.5l-186 -60q-12 23 -35.5 59t-46.5 60l178 58q-27 35 -48 58.5t-52 51.5l270 86l51 -50q22 -22 48 -56l166 53q20 -23 44.5 -57.5t41.5 -61.5l-166 -53 q111 -174 187.5 -388t76.5 -458q0 -129 -31 -236.5t-92 -184.5t-152.5 -119t-210.5 -42q-117 0 -208 41t-154 117t-97 180.5t-34 231.5zM399 557q0 -166 38 -262t141 -96q49 0 80.5 26.5t51 74.5t26.5 114.5t7 148.5q0 45 -4 95.5t-12 98.5t-17.5 89t-21.5 72q-23 6 -44 10 t-46 4q-109 0 -154 -91t-45 -284z" />
<glyph unicode="&#xf1;" horiz-adv-x="1179" d="M121 0v1042q84 37 200.5 59.5t264.5 22.5q240 0 356.5 -84t116.5 -262v-778h-320v776q0 150 -164 150q-47 0 -76.5 -6.5t-58.5 -16.5v-903h-319zM260 1352q23 47 60.5 79.5t103.5 38.5q45 4 82 -9t70.5 -30.5t66.5 -32t72 -9.5q53 6 82.5 32.5t46.5 65.5l67 -144 q-35 -96 -161 -110q-45 -4 -83 9t-73 29.5t-68.5 31t-72.5 10.5q-53 -4 -82 -34t-45 -69z" />
<glyph unicode="&#xf2;" horiz-adv-x="1138" d="M82 553q0 123 30.5 228.5t92 181t153 118.5t209.5 43q121 0 212 -43t152.5 -118.5t93.5 -181t32 -228.5t-32 -228.5t-93.5 -182t-152.5 -119.5t-210 -43q-121 0 -212 43t-152.5 119.5t-92 182t-30.5 228.5zM258 1503q10 27 45 39t80 12t92 -11t82 -32l139 -294h-174z M399 557q0 -74 7.5 -139.5t26 -114.5t51 -77.5t85.5 -28.5t86 28.5t51.5 77.5t25.5 114.5t7 139.5t-7 140.5t-25.5 117.5t-51 81t-86.5 30q-53 0 -85.5 -30t-51 -81t-26 -117.5t-7.5 -140.5z" />
<glyph unicode="&#xf3;" horiz-adv-x="1138" d="M82 553q0 123 30.5 228.5t92 181t153 118.5t209.5 43q121 0 212 -43t152.5 -118.5t93.5 -181t32 -228.5t-32 -228.5t-93.5 -182t-152.5 -119.5t-210 -43q-121 0 -212 43t-152.5 119.5t-92 182t-30.5 228.5zM399 557q0 -74 7.5 -139.5t26 -114.5t51 -77.5t85.5 -28.5 t86 28.5t51.5 77.5t25.5 114.5t7 139.5t-7 140.5t-25.5 117.5t-51 81t-86.5 30q-53 0 -85.5 -30t-51 -81t-26 -117.5t-7.5 -140.5zM453 1217l139 294q35 20 82 31.5t91 11.5t79 -12t47 -39l-264 -286h-174z" />
<glyph unicode="&#xf4;" horiz-adv-x="1138" d="M82 553q0 123 30.5 228.5t92 181t153 118.5t209.5 43q121 0 212 -43t152.5 -118.5t93.5 -181t32 -228.5t-32 -228.5t-93.5 -182t-152.5 -119.5t-210 -43q-121 0 -212 43t-152.5 119.5t-92 182t-30.5 228.5zM262 1278l215 217q37 37 90 37q55 0 92 -37l215 -217l-86 -80 l-219 156l-219 -156zM399 557q0 -74 7.5 -139.5t26 -114.5t51 -77.5t85.5 -28.5t86 28.5t51.5 77.5t25.5 114.5t7 139.5t-7 140.5t-25.5 117.5t-51 81t-86.5 30q-53 0 -85.5 -30t-51 -81t-26 -117.5t-7.5 -140.5z" />
<glyph unicode="&#xf5;" horiz-adv-x="1138" d="M82 553q0 123 30.5 228.5t92 181t153 118.5t209.5 43q121 0 212 -43t152.5 -118.5t93.5 -181t32 -228.5t-32 -228.5t-93.5 -182t-152.5 -119.5t-210 -43q-121 0 -212 43t-152.5 119.5t-92 182t-30.5 228.5zM242 1352q23 47 59.5 79.5t104.5 38.5q45 4 81.5 -9t70.5 -30.5 t66.5 -32t71.5 -9.5q53 6 83 32.5t46 65.5l68 -144q-18 -47 -57 -74.5t-105 -35.5q-47 -4 -84 9t-71.5 29.5t-68.5 31t-73 10.5q-53 -4 -81.5 -34t-45.5 -69zM399 557q0 -74 7.5 -139.5t26 -114.5t51 -77.5t85.5 -28.5t86 28.5t51.5 77.5t25.5 114.5t7 139.5t-7 140.5 t-25.5 117.5t-51 81t-86.5 30q-53 0 -85.5 -30t-51 -81t-26 -117.5t-7.5 -140.5z" />
<glyph unicode="&#xf6;" horiz-adv-x="1138" d="M82 553q0 123 30.5 228.5t92 181t153 118.5t209.5 43q121 0 212 -43t152.5 -118.5t93.5 -181t32 -228.5t-32 -228.5t-93.5 -182t-152.5 -119.5t-210 -43q-121 0 -212 43t-152.5 119.5t-92 182t-30.5 228.5zM229 1356q0 53 40 89t100 36q57 0 99 -36t42 -89t-42 -88 t-99 -35q-59 0 -99.5 35t-40.5 88zM399 557q0 -74 7.5 -139.5t26 -114.5t51 -77.5t85.5 -28.5t86 28.5t51.5 77.5t25.5 114.5t7 139.5t-7 140.5t-25.5 117.5t-51 81t-86.5 30q-53 0 -85.5 -30t-51 -81t-26 -117.5t-7.5 -140.5zM627 1356q0 53 41 89t100 36q57 0 99 -36 t42 -89t-42 -88t-99 -35q-59 0 -100 35t-41 88z" />
<glyph unicode="&#xf7;" d="M162 600v154h831v-154h-831zM444 346q0 55 39 94t95 39q55 0 94 -39t39 -94t-39 -95t-94 -40t-94.5 40t-39.5 95zM444 1010q0 55 39 94t95 39q55 0 94 -39t39 -94t-39 -94t-94 -39t-94.5 39t-39.5 94z" />
<glyph unicode="&#xf8;" horiz-adv-x="1146" d="M82 553q0 123 31.5 228.5t94 181t155 118.5t210.5 43q139 0 242 -63l94 162l70 -41l-94 -166q90 -78 135 -197t45 -266q0 -123 -32 -228.5t-94 -182t-154.5 -119.5t-211.5 -43q-74 0 -135 17t-114 50l-97 -166l-69 41l98 172q-86 78 -130 196t-44 263zM375 559 q0 -57 6 -110.5t22 -98.5l304 524q-23 35 -56 54.5t-78 19.5q-57 0 -95 -32.5t-61.5 -87t-32.5 -124t-9 -145.5zM440 248q47 -74 133 -74q57 0 96.5 32t63 85t32.5 121.5t9 144.5q0 57 -7 112.5t-24 102.5z" />
<glyph unicode="&#xf9;" horiz-adv-x="1165" d="M121 362v742h319v-764q0 -59 35 -102t117 -43t133 26v883h319v-1038q-78 -39 -191.5 -62.5t-268.5 -23.5q-236 0 -349.5 90.5t-113.5 291.5zM289 1503q10 27 45 39t80 12t92 -11t82 -32l139 -294h-174z" />
<glyph unicode="&#xfa;" horiz-adv-x="1165" d="M121 362v742h319v-764q0 -59 35 -102t117 -43t133 26v883h319v-1038q-78 -39 -191.5 -62.5t-268.5 -23.5q-236 0 -349.5 90.5t-113.5 291.5zM467 1217l139 294q35 20 82 31.5t92 11.5t80 -12t45 -39l-264 -286h-174z" />
<glyph unicode="&#xfb;" horiz-adv-x="1165" d="M121 362v742h319v-764q0 -59 35 -102t117 -43t133 26v883h319v-1038q-78 -39 -191.5 -62.5t-268.5 -23.5q-236 0 -349.5 90.5t-113.5 291.5zM279 1278l213 217q37 37 90 37q55 0 92 -37l215 -217l-86 -80l-219 156l-219 -156z" />
<glyph unicode="&#xfc;" horiz-adv-x="1165" d="M121 362v742h319v-764q0 -59 35 -102t117 -43t133 26v883h319v-1038q-78 -39 -191.5 -62.5t-268.5 -23.5q-236 0 -349.5 90.5t-113.5 291.5zM242 1356q0 53 41 89t100 36q57 0 99 -36t42 -89t-42 -88t-99 -35q-59 0 -100 35t-41 88zM641 1356q0 53 41 89t98 36 q59 0 100.5 -36t41.5 -89t-41 -88t-101 -35q-57 0 -98 35t-41 88z" />
<glyph unicode="&#xfd;" horiz-adv-x="1069" d="M29 1104h338l182 -760h2l192 760h299l-497 -1544h-338l186 440zM428 1217l139 294q35 20 82 31.5t92 11.5t80 -12t45 -39l-264 -286h-174z" />
<glyph unicode="&#xfe;" horiz-adv-x="1169" d="M121 -440v2048h317v-527q37 16 87 27.5t102 11.5q98 0 183 -34.5t146.5 -102.5t96 -169t34.5 -232q0 -141 -38.5 -251t-105 -186.5t-158 -116.5t-195.5 -40q-47 0 -83 4t-67 14v-446h-319zM440 188q18 -4 40 -8t44 -4q68 0 116 28.5t76.5 79t42 120t13.5 153.5 q0 193 -54 284t-177 91q-25 0 -51.5 -5t-49.5 -16v-723z" />
<glyph unicode="&#xff;" horiz-adv-x="1069" d="M29 1104h338l182 -760h2l192 760h299l-497 -1544h-338l186 440zM213 1356q0 53 41 89t98 36t99.5 -36t42.5 -89t-42 -88t-100 -35q-57 0 -98 35t-41 88zM612 1356q0 53 41 89t99 36q57 0 99 -36t42 -89t-42 -88t-99 -35t-98.5 35t-41.5 88z" />
<glyph unicode="&#x152;" horiz-adv-x="1576" d="M90 705q0 166 36 300t108.5 228t182 145.5t259.5 51.5q51 0 98 -7.5t76 -13.5h643v-223h-385v-359h338v-217h-338v-387h385v-223h-645q-27 -8 -72 -14t-98 -6q-150 0 -260.5 51t-183 146t-108.5 228.5t-36 299.5zM428 711q0 -98 11.5 -189.5t41 -162t81.5 -113.5t132 -43 q68 0 105 10v993q-18 6 -45 10.5t-60 4.5q-82 0 -133 -43t-80.5 -115t-41 -164t-11.5 -188z" />
<glyph unicode="&#x153;" horiz-adv-x="1751" d="M82 553q0 123 31.5 228.5t92 181t149.5 118.5t206 43q106 0 184 -44t132 -130q53 86 141 130t186 44q242 0 357.5 -155.5t107.5 -442.5l-653 -82q10 -78 34.5 -126t59.5 -75.5t77 -36.5t89 -9q96 0 164.5 17t115.5 42l74 -197q-35 -18 -70.5 -32.5t-81.5 -24.5 t-105.5 -16t-139.5 -6q-119 0 -209 48t-143 140q-49 -86 -129 -137t-191 -51q-117 0 -207 43t-150.5 119.5t-91 182t-30.5 228.5zM389 559q0 -68 6 -133.5t24.5 -116.5t52.5 -82.5t89 -31.5q57 0 91 31.5t52.5 82.5t23.5 117t5 131q0 68 -5 134.5t-23.5 117.5t-52.5 83 t-91 32q-55 0 -89 -32t-52.5 -84t-24.5 -116.5t-6 -132.5zM995 606l377 47q0 150 -49 219.5t-135 69.5q-45 0 -82 -20.5t-63.5 -62.5t-39 -104.5t-8.5 -148.5z" />
<glyph unicode="&#x178;" horiz-adv-x="1087" d="M4 1409h354l201 -532h4l213 532h309l-376 -817v-592h-332v592zM219 1647q0 53 41 89t98 36q59 0 100.5 -36t41.5 -89t-41 -88t-101 -35q-57 0 -98 35t-41 88zM618 1647q0 53 41 89t99 36q57 0 99 -36t42 -89t-42 -88t-99 -35t-98.5 35t-41.5 88z" />
<glyph unicode="&#x2c6;" horiz-adv-x="507" d="M-51 1278l215 217q37 37 90 37t90 -37l215 -217l-86 -80l-219 156l-219 -156z" />
<glyph unicode="&#x2dc;" horiz-adv-x="507" d="M-72 1352q23 47 61 79.5t103 38.5q45 4 82 -9t71 -30.5t66.5 -32t71.5 -9.5q53 6 83 32.5t46 65.5l68 -144q-35 -96 -162 -110q-45 -4 -83 9t-73 29.5t-68.5 31t-72.5 10.5q-53 -4 -82 -34t-45 -69z" />
<glyph unicode="&#x2000;" horiz-adv-x="931" />
<glyph unicode="&#x2001;" horiz-adv-x="1863" />
<glyph unicode="&#x2002;" horiz-adv-x="931" />
<glyph unicode="&#x2003;" horiz-adv-x="1863" />
<glyph unicode="&#x2004;" horiz-adv-x="620" />
<glyph unicode="&#x2005;" horiz-adv-x="464" />
<glyph unicode="&#x2006;" horiz-adv-x="309" />
<glyph unicode="&#x2007;" horiz-adv-x="309" />
<glyph unicode="&#x2008;" horiz-adv-x="231" />
<glyph unicode="&#x2009;" horiz-adv-x="372" />
<glyph unicode="&#x200a;" horiz-adv-x="102" />
<glyph unicode="&#x2010;" horiz-adv-x="729" d="M98 569v236h533v-236h-533z" />
<glyph unicode="&#x2011;" horiz-adv-x="729" d="M98 569v236h533v-236h-533z" />
<glyph unicode="&#x2012;" horiz-adv-x="729" d="M98 569v236h533v-236h-533z" />
<glyph unicode="&#x2013;" horiz-adv-x="860" d="M0 592v188h860v-188h-860z" />
<glyph unicode="&#x2014;" horiz-adv-x="1720" d="M0 606v160h1720v-160h-1720z" />
<glyph unicode="&#x2018;" horiz-adv-x="632" d="M92 1018l318 590h161l-182 -590q-25 -37 -67.5 -65.5t-108.5 -28.5t-90.5 29.5t-30.5 64.5z" />
<glyph unicode="&#x2019;" horiz-adv-x="632" d="M61 936l183 592q25 35 68.5 64.5t109.5 29.5q63 0 88 -29.5t31 -64.5l-316 -592h-164z" />
<glyph unicode="&#x201a;" horiz-adv-x="632" d="M61 -346l183 590q25 37 68.5 65.5t109.5 28.5q63 0 88 -29.5t31 -64.5l-316 -590h-164z" />
<glyph unicode="&#x201c;" horiz-adv-x="1077" d="M92 1018l318 590h161l-182 -590q-25 -37 -67.5 -65.5t-108.5 -28.5t-90.5 29.5t-30.5 64.5zM535 1018l317 590h164l-185 -590q-23 -37 -66.5 -65.5t-109.5 -28.5q-63 0 -88.5 29.5t-31.5 64.5z" />
<glyph unicode="&#x201d;" horiz-adv-x="1077" d="M61 936l183 592q25 35 68.5 64.5t109.5 29.5q63 0 88 -29.5t31 -64.5l-316 -592h-164zM504 936l184 592q25 35 68 64.5t108 29.5q66 0 90.5 -29.5t30.5 -64.5l-317 -592h-164z" />
<glyph unicode="&#x201e;" horiz-adv-x="1077" d="M61 -346l183 590q25 37 68.5 65.5t109.5 28.5q63 0 88 -29.5t31 -64.5l-316 -590h-164zM504 -346l184 590q25 37 68 65.5t108 28.5q66 0 90.5 -29.5t30.5 -64.5l-317 -590h-164z" />
<glyph unicode="&#x2022;" horiz-adv-x="802" d="M111 743q0 59 22.5 112.5t62.5 93.5t93 62.5t112 22.5t112.5 -22.5t93.5 -62.5t62.5 -93t22.5 -113q0 -61 -22.5 -113t-62.5 -92t-93 -62.5t-113 -22.5q-59 0 -112 22.5t-93 62.5t-62.5 92t-22.5 113z" />
<glyph unicode="&#x2026;" horiz-adv-x="1902" d="M135 166q0 76 53.5 129t128.5 53q76 0 129.5 -53t53.5 -129t-53.5 -129t-129.5 -53t-129 53t-53 129zM770 166q0 76 52 129t128 53t129.5 -53t53.5 -129t-53.5 -129t-129.5 -53t-128 53t-52 129zM1403 166q0 76 53 129t129 53t129 -53t53 -129t-53 -129t-129 -53t-129 53 t-53 129z" />
<glyph unicode="&#x202f;" horiz-adv-x="372" />
<glyph unicode="&#x2039;" horiz-adv-x="673" d="M82 684l305 485l172 -102l-240 -383l240 -383l-174 -100z" />
<glyph unicode="&#x203a;" horiz-adv-x="673" d="M115 301l239 383l-239 383l174 102l303 -485l-303 -483z" />
<glyph unicode="&#x205f;" horiz-adv-x="464" />
<glyph unicode="&#x2122;" horiz-adv-x="1599" d="M76 1294v115h530v-115h-188v-585h-152v585h-190zM618 709l103 700h190l148 -526l139 526h193l102 -700h-147l-64 532l-158 -532h-137l-160 530l-59 -530h-150z" />
<glyph unicode="&#xe000;" horiz-adv-x="1105" d="M0 1105h1105v-1105h-1105v1105z" />
<glyph unicode="&#xfb01;" horiz-adv-x="1241" d="M68 897v207h118v113q0 104 35 182t98.5 128t154.5 70.5t202 8.5v-203q-80 4 -125 -30t-45 -130v-139h170v-207h-170v-897h-320v897h-118zM782 1421q0 31 13.5 57.5t36 46t54.5 32t66 12.5q72 0 122 -44t50 -104q0 -61 -50 -105t-122 -44t-121 44t-49 105zM797 0v1104h319 v-1104h-319z" />
<glyph unicode="&#xfb02;" horiz-adv-x="1251" d="M68 897v207h118v113q0 104 35 182t98.5 128t154.5 70.5t202 8.5v-203q-80 4 -125 -30t-45 -130v-139h170v-207h-170v-897h-320v897h-118zM805 0v1608h319v-1608h-319z" />
<glyph unicode="&#xfb03;" horiz-adv-x="2019" d="M1563 1421q0 61 49 105.5t121 44.5t121 -44t49 -106q0 -63 -49.5 -106t-120.5 -43q-72 0 -121 43t-49 106zM1573 0v1104h319v-1104h-319zM789 897v207h120v113q0 209 132 311q107 83 274 82q40 0 84 -4v-203h-17q-68 0 -108 -30q-45 -34 -45 -130v-139h170v-207h-170 v-897h-320v897h-120zM66 897v207h120v113q0 209 132 311q107 83 274 82q40 0 84 -4v-203h-17q-68 0 -108 -30q-45 -34 -45 -130v-139h170v-207h-170v-897h-320v897h-120z" />
<glyph unicode="&#xfb04;" horiz-adv-x="2019" d="M1573 0v1608h319v-1608h-319zM789 897v207h120v113q0 209 132 311q107 83 274 82q40 0 84 -4v-203h-17q-68 0 -108 -30q-45 -34 -45 -130v-139h170v-207h-170v-897h-320v897h-120zM66 897v207h120v113q0 209 132 311q107 83 274 82q40 0 84 -4v-203h-17q-68 0 -108 -30 q-45 -34 -45 -130v-139h170v-207h-170v-897h-320v897h-120z" />
</font>
</defs>
</svg>
