<?xml version="1.0" standalone="no"?>
<!DOCTYPE svg PUBLIC "-//W3C//DTD SVG 1.1//EN" "http://www.w3.org/Graphics/SVG/1.1/DTD/svg11.dtd" >
<svg xmlns="http://www.w3.org/2000/svg">
<metadata>
This is a custom SVG webfont generated by Font Squirrel.
Copyright   : Copyright Hans Reichel 1996 Published by FontShop International FontFont release 17
</metadata>
<defs>
<font id="DaxMedium" horiz-adv-x="1118" >
<font-face units-per-em="2048" ascent="1638" descent="-410" />
<missing-glyph horiz-adv-x="557" />
<glyph unicode=" "  horiz-adv-x="557" />
<glyph unicode="&#x09;" horiz-adv-x="557" />
<glyph unicode="&#xa0;" horiz-adv-x="557" />
<glyph unicode="!" horiz-adv-x="636" d="M190 137q0 61 43 105.5t107 44.5q61 0 105 -44t44 -106q0 -63 -44 -107t-105 -44q-63 0 -106.5 44t-43.5 107zM190 1409h297l-53 -926h-190z" />
<glyph unicode="&#x22;" horiz-adv-x="845" d="M129 1374q41 55 113 56q70 0 112 -56l-49 -543h-129zM492 1376q43 53 112 54q70 0 113 -54l-49 -545h-129z" />
<glyph unicode="#" d="M66 455v123h215l51 288h-195v123h215l74 420h141l-73 -420h223l71 420h142l-74 -418h197v-125h-217l-54 -288h197v-123h-217l-78 -455h-141l78 455h-220l-82 -455h-139l78 455h-192zM422 578h219l53 288h-221z" />
<glyph unicode="$" d="M156 61l61 172q102 -63 236 -63q102 0 164.5 61.5t62.5 163.5q0 84 -52.5 139.5t-172.5 104.5q-287 115 -287 377q0 156 95 269.5t257 133.5l-20 242h145l-20 -238q158 -8 260 -73l-54 -148q-102 59 -213 60q-94 0 -151 -57.5t-57 -153.5q0 -90 61 -148q47 -45 158 -92 q309 -133 309 -401q0 -164 -99.5 -278t-263.5 -140l23 -258h-152l21 252q-202 5 -311 75z" />
<glyph unicode="%" horiz-adv-x="1783" d="M129 946q0 483 293 484q295 0 295 -484q0 -481 -295 -481q-293 0 -293 481zM293 952q0 -365 129 -364q131 0 131 364q0 371 -131 371q-129 0 -129 -371zM588 14l479 1411l125 -32l-479 -1411zM1067 463q0 483 293 483q295 0 295 -483t-295 -483q-293 0 -293 483z M1231 469q0 -367 129 -367q131 0 131 367q0 369 -131 369q-129 0 -129 -369z" />
<glyph unicode="&#x26;" horiz-adv-x="1298" d="M96 389q0 150 99 256q90 98 241 146v4q-250 84 -250 305q0 145 112 237.5t296 92.5q195 0 319 -78l-73 -146q-86 51 -195 51q-209 0 -209 -180q0 -88 67.5 -140t170.5 -52q227 0 532 159l74 -153q-111 -51 -225 -80v-750q-129 -82 -412 -81q-254 0 -400.5 107t-146.5 302 zM365 403q0 -264 290 -264q100 0 156 25v600q-240 -55 -338 -131q-108 -83 -108 -230z" />
<glyph unicode="'" horiz-adv-x="485" d="M129 1374q41 55 113 56q72 0 114 -56l-51 -543h-127z" />
<glyph unicode="(" horiz-adv-x="780" d="M125 586q0 264 113.5 514t363.5 534l121 -69q-334 -463 -334 -979q0 -512 334 -983l-119 -68q-252 283 -365.5 535t-113.5 516z" />
<glyph unicode=")" horiz-adv-x="780" d="M57 -397q334 475 334 983q0 510 -334 979l119 69q252 -283 365.5 -533.5t113.5 -514.5t-113.5 -516t-365.5 -535z" />
<glyph unicode="*" horiz-adv-x="905" d="M100 1368q0 41 30 70.5t71 29.5t69.5 -29.5t28.5 -70.5q0 -43 -29.5 -71.5t-70.5 -28.5t-70 28.5t-29 71.5zM186 1073q0 43 30 73t71 30t69.5 -30t28.5 -73q0 -41 -28.5 -70.5t-69.5 -29.5t-71 29.5t-30 70.5zM354 1548q0 43 29 73t70 30t69.5 -30t28.5 -73 q0 -41 -28.5 -69.5t-69.5 -28.5t-70 28.5t-29 69.5zM371 1286q0 35 23.5 58.5t58.5 23.5t58.5 -23.5t23.5 -58.5q0 -37 -24 -60.5t-58 -23.5q-35 0 -58.5 24.5t-23.5 59.5zM516 1073q0 43 29.5 72t70.5 29t70 -29t29 -72t-30 -71.5t-71 -28.5t-69.5 29.5t-28.5 70.5z M606 1366q0 43 29 72.5t70 29.5t70.5 -29.5t29.5 -72.5t-30 -71.5t-70 -28.5q-41 0 -70 28.5t-29 71.5z" />
<glyph unicode="+" d="M156 600v164h321v340h164v-340h322v-164h-322v-342h-164v342h-321z" />
<glyph unicode="," horiz-adv-x="577" d="M12 -346l183 549q57 72 155 71q92 0 107 -71l-297 -549h-148z" />
<glyph unicode="-" horiz-adv-x="716" d="M109 594v190h499v-190h-499z" />
<glyph unicode="." horiz-adv-x="542" d="M121 137q0 63 44 107.5t107 44.5q61 0 105.5 -44t44.5 -108q0 -61 -44 -105t-106 -44q-63 0 -107 44t-44 105z" />
<glyph unicode="/" horiz-adv-x="1171" d="M25 -393l966 2025l156 -76l-967 -2025z" />
<glyph unicode="0" d="M104 705q0 293 91 481q119 244 364 244q246 0 365 -244q90 -188 90 -481t-90 -482q-119 -244 -365 -243q-246 0 -364 243q-91 189 -91 482zM344 707q0 -561 215 -562q215 0 215 562q0 567 -215 567t-215 -567z" />
<glyph unicode="1" d="M162 1194q348 45 452 215h179v-1409h-254v1128q-119 -66 -346 -84z" />
<glyph unicode="2" d="M72 0l487 700q127 182 127 318q0 229 -258 229q-143 0 -254 -57l-61 160q156 80 379 80t346 -115q113 -106 112 -271q0 -158 -182 -399l-332 -438h527v-207h-891z" />
<glyph unicode="3" d="M78 57l67 168q111 -59 275 -59q129 0 204.5 66.5t75.5 185.5q0 272 -374 262v135q156 14 244.5 82t88.5 172q0 182 -217 182q-158 0 -264 -55l-63 156q147 78 366 78q190 0 310 -89.5t120 -242.5q0 -117 -88 -205q-63 -66 -155 -100l2 -5q299 -92 299 -370 q0 -197 -141.5 -317.5t-362.5 -120.5q-248 -1 -387 77z" />
<glyph unicode="4" d="M104 299v154l560 956h243v-969h109v-141h-109v-299h-235v299h-568zM268 440h404l2 518q0 104 4 207q-20 -45 -105 -198z" />
<glyph unicode="5" d="M98 57l66 170q115 -63 276 -63q115 0 196 67.5t81 186.5q0 279 -363 278q-82 0 -184 -16l70 729h696v-207h-522l-29 -366q49 4 96 4q250 0 383 -119q121 -111 121 -303q0 -186 -141.5 -312t-364.5 -126q-244 -1 -381 77z" />
<glyph unicode="6" d="M111 518q0 410 280 672q203 188 430 231l64 -164q-362 -111 -492 -434q76 29 166 29q195 0 318 -98q139 -115 139 -332q0 -193 -117 -313q-123 -129 -332 -129q-229 0 -348 155q-108 141 -108 383zM342 512q0 -367 229 -367q106 0 162 91q47 78 47 198q0 289 -270 289 q-80 0 -152 -29q-16 -84 -16 -182z" />
<glyph unicode="7" d="M121 1202v207h932l-185 -436q-260 -616 -344 -973h-307l533 1202h-629z" />
<glyph unicode="8" d="M104 342q0 121 69 210t226 181q-135 82 -194.5 163t-59.5 189q0 152 119 248.5t295 96.5t295 -95.5t119 -247.5q0 -109 -58.5 -187.5t-195.5 -158.5q158 -94 226.5 -186t68.5 -211q0 -164 -127 -264t-328 -100q-195 0 -319 94q-136 100 -136 268zM324 348 q0 -90 67.5 -150.5t163.5 -60.5q100 0 164.5 59.5t64.5 149.5q0 92 -43 152q-49 70 -188 149q-137 -80 -186 -147q-43 -60 -43 -152zM360 1090q0 -82 43 -136.5t162 -128.5q117 70 160 126.5t43 135.5q0 86 -57.5 142.5t-147.5 56.5q-92 0 -147.5 -55t-55.5 -141z" />
<glyph unicode="9" d="M102 979q0 190 121 316t332 126q227 0 346 -155q106 -141 107 -383q0 -410 -281 -672q-201 -186 -430 -231l-64 165q362 106 492 433q-86 -29 -166 -29q-195 0 -317 98q-140 115 -140 332zM336 975q0 -289 270 -289q76 0 152 31q16 76 16 180q0 369 -229 369 q-106 0 -162 -90q-47 -78 -47 -201z" />
<glyph unicode=":" horiz-adv-x="542" d="M121 137q0 63 44 107.5t107 44.5q61 0 105.5 -44t44.5 -108q0 -61 -44 -105t-106 -44q-63 0 -107 44t-44 105zM121 776q0 61 44 105.5t107 44.5q61 0 105.5 -44t44.5 -106q0 -63 -44 -107t-106 -44q-63 0 -107 44t-44 107z" />
<glyph unicode=";" horiz-adv-x="577" d="M12 -346l183 549q57 76 153 76t109 -76l-297 -549h-148zM156 776q0 61 44 105.5t105 44.5q63 0 107.5 -44t44.5 -106q0 -63 -44 -107t-108 -44q-61 0 -105 44t-44 107z" />
<glyph unicode="&#x3c;" d="M156 610v152l807 348v-178l-609 -246l609 -246v-178z" />
<glyph unicode="=" d="M156 401v164h807v-164h-807zM156 797v164h807v-164h-807z" />
<glyph unicode="&#x3e;" d="M156 262v178l608 246l-608 246v178l807 -348v-152z" />
<glyph unicode="?" horiz-adv-x="864" d="M80 1348q137 78 323 77q201 0 318 -92t117 -248q0 -129 -107 -227q-82 -76 -192 -110l-23 -265h-188l-31 340q115 25 190 82q88 68 88 158q0 188 -219 188q-111 0 -209 -51zM274 137q0 61 43 105.5t107 44.5q61 0 105 -44t44 -106q0 -63 -44 -106t-105 -43 q-63 0 -106.5 43t-43.5 106z" />
<glyph unicode="@" horiz-adv-x="1779" d="M119 461q0 393 273.5 682t660.5 289q270 0 437 -158t167 -426q0 -242 -119 -459q-137 -256 -346 -256q-139 0 -156 180q-117 -176 -309 -176q-125 0 -192 99q-59 88 -60 225q0 193 111 364q125 197 311 197q160 0 233 -172l29 137h125l-78 -360q-45 -209 -45 -267 q0 -121 74 -120q119 0 219 215q92 199 92 391q0 229 -139 364.5t-365 135.5q-344 0 -583 -275q-229 -264 -230 -614q0 -303 187 -473q178 -164 477 -164q223 0 393 82q143 70 287 221l57 -72q-150 -160 -313 -235q-182 -84 -426 -84q-350 0 -557 188q-215 197 -215 541z M612 463q0 -94 45 -156.5t125 -62.5q133 0 224 166q76 139 77 282q2 104 -49 166t-127 62q-135 0 -223 -170q-72 -140 -72 -287z" />
<glyph unicode="A" horiz-adv-x="1226" d="M25 0l467 1409h245l465 -1409h-268l-109 362h-454l-113 -362h-233zM412 514h376l-145 496q-31 104 -37 170h-4q-10 -55 -39 -170z" />
<glyph unicode="B" horiz-adv-x="1189" d="M145 59v1291q145 80 402 80q246 0 381 -105q127 -96 127 -260q0 -133 -86 -221q-72 -76 -176 -99v-4q115 -25 202 -112q106 -104 107 -244q0 -203 -150 -307q-137 -98 -389 -98q-268 -1 -418 79zM391 166q66 -27 164 -27q287 0 287 250q0 285 -346 285h-25l-80 -2v-506z M391 801l80 -2q11 0 22 -1q165 0 238 60q74 57 74 191q0 233 -258 233q-84 0 -156 -25v-456z" />
<glyph unicode="C" horiz-adv-x="993" d="M100 705q0 305 138 505q150 219 405 220q180 0 291 -80l-57 -156q-82 49 -183 49q-168 0 -252 -166q-72 -141 -71 -370q0 -225 75 -367q86 -162 248 -162q100 0 178 49l62 -168q-102 -80 -293 -79q-258 0 -405 215q-136 201 -136 510z" />
<glyph unicode="D" horiz-adv-x="1241" d="M145 59v1291q156 80 385 80q307 0 465 -199q145 -184 146 -516q0 -336 -137 -525q-154 -211 -459 -210q-261 -1 -400 79zM403 180q61 -20 138 -20q178 0 257 134t79 425q0 541 -340 541q-80 0 -134 -21v-1059z" />
<glyph unicode="E" horiz-adv-x="923" d="M145 0v1409h686v-174h-425v-426h378v-172h-378v-463h425v-174h-686z" />
<glyph unicode="F" horiz-adv-x="907" d="M145 0v1409h684v-174h-423v-426h376v-172h-376v-637h-261z" />
<glyph unicode="G" horiz-adv-x="1226" d="M100 713q0 332 174 526q168 190 447 191q221 0 352 -78l-78 -160q-90 53 -243 53q-387 0 -387 -545q0 -260 94 -400t246 -140q92 0 141 26v463h-203v160h449v-750q-137 -80 -377 -79q-287 0 -451 191.5t-164 541.5z" />
<glyph unicode="H" horiz-adv-x="1255" d="M145 0v1409h261v-600h444v600h260v-1409h-260v637h-444v-637h-261z" />
<glyph unicode="I" horiz-adv-x="561" d="M150 0v1409h262v-1409h-262z" />
<glyph unicode="J" horiz-adv-x="561" d="M-84 -268q102 23 168 105.5t66 215.5v1356h262v-1333q0 -236 -146 -377q-133 -129 -350 -150v183z" />
<glyph unicode="K" horiz-adv-x="1136" d="M150 0v1409h260v-643h4l403 643h266l-440 -651l465 -758h-291l-403 713h-4v-713h-260z" />
<glyph unicode="L" horiz-adv-x="864" d="M150 0v1409h262v-1235h389v-174h-651z" />
<glyph unicode="M" horiz-adv-x="1617" d="M94 0l158 1409h262l252 -903q23 -84 37 -158h4q6 33 37 158l260 903h262l158 -1409h-246q-2 33 -90 932q-7 66 -7 135q0 17 1 35h-4q-8 -39 -41 -170l-269 -932h-147q-12 39 -266 934q-23 82 -41 168h-4v-34q0 -68 -7 -134l-90 -934h-219z" />
<glyph unicode="N" horiz-adv-x="1331" d="M145 0v1409h246l504 -856q43 -74 76 -143h4q-6 74 -6 149v850h217v-1409h-209l-535 909q-43 74 -82 158h-4q8 -86 9 -164v-903h-220z" />
<glyph unicode="O" horiz-adv-x="1259" d="M100 705q0 324 123 512q139 213 408 213q268 0 405 -213q123 -188 123 -512t-123 -512q-137 -213 -405 -213q-270 0 -408 213q-123 188 -123 512zM365 713q0 -541 266 -541q264 0 264 541q0 545 -264 544q-266 1 -266 -544z" />
<glyph unicode="P" horiz-adv-x="1124" d="M145 0v1350q154 80 390 80q260 0 393 -125q121 -115 121 -314q0 -193 -121 -311q-137 -129 -393 -129q-39 0 -80 2l-56 4v-557h-254zM399 711l54 -4q29 -2 55 -2q291 0 291 288q0 287 -269 287q-78 0 -131 -23v-546z" />
<glyph unicode="Q" horiz-adv-x="1259" d="M100 707q0 322 123 510q139 213 408 213q270 0 407 -213q121 -188 121 -510q0 -467 -258 -650l234 -288l-191 -170l-199 399q-59 -14 -114 -14q-270 0 -408 211q-123 190 -123 512zM365 717q0 -543 266 -543t266 543q0 541 -266 540q-266 1 -266 -540z" />
<glyph unicode="R" horiz-adv-x="1159" d="M150 0v1350q156 80 385 80q258 0 389 -113t131 -316q0 -158 -104.5 -260t-272.5 -112v-4l420 -625h-289l-399 639h-4v-639h-256zM406 702q27 -10 96 -10q299 0 299 297q0 150 -62.5 220.5t-203.5 70.5q-76 0 -129 -25v-553z" />
<glyph unicode="S" horiz-adv-x="970" d="M76 59l63 183q98 -66 236 -66q104 0 164.5 59.5t60.5 157.5q0 80 -50 134.5t-169 103.5q-291 121 -291 385q0 174 116 294t306 120q197 0 309 -80l-57 -160q-102 63 -217 63q-96 0 -149.5 -55t-53.5 -149q0 -84 62 -144q45 -43 151 -88q317 -133 317 -407 q0 -188 -126.5 -309t-323.5 -121q-225 -1 -348 79z" />
<glyph unicode="T" horiz-adv-x="911" d="M63 1235v174h787v-174h-264v-1235h-260v1235h-263z" />
<glyph unicode="U" horiz-adv-x="1220" d="M145 410v999h261v-997q0 -109 61 -171.5t154 -62.5q92 0 152.5 61.5t60.5 172.5v997h241v-999q0 -193 -129 -313t-336 -120t-336 120t-129 313z" />
<glyph unicode="V" horiz-adv-x="1124" d="M31 1409h276l230 -905q18 -76 36 -178h5q8 49 36 178l234 905h248l-416 -1409h-225z" />
<glyph unicode="W" horiz-adv-x="1697" d="M59 1409h260l175 -922q14 -74 24 -159h4q4 41 29 159l213 922h192l211 -922q16 -70 27 -159h4q4 43 23 159l182 922h239l-323 -1409h-229l-211 862q-18 74 -27 154h-4q-4 -35 -27 -154l-209 -862h-229z" />
<glyph unicode="X" horiz-adv-x="1101" d="M31 0l381 721l-342 688h280l205 -477h4l232 477h247l-350 -657l383 -752h-291l-235 520h-4l-244 -520h-266z" />
<glyph unicode="Y" horiz-adv-x="1054" d="M18 1409h277l242 -584h4l252 584h247l-383 -801v-608h-260v608z" />
<glyph unicode="Z" horiz-adv-x="925" d="M43 0l479 1235h-440v174h764l-467 -1235h479v-174h-815z" />
<glyph unicode="[" horiz-adv-x="724" d="M145 -440v2048h492v-144h-270v-1759h270v-145h-492z" />
<glyph unicode="\" horiz-adv-x="1179" d="M25 1554l157 78l973 -2023l-158 -78z" />
<glyph unicode="]" horiz-adv-x="724" d="M88 -295h270v1759h-270v144h492v-2048h-492v145z" />
<glyph unicode="^" horiz-adv-x="1218" d="M180 954l314 412q45 59 116 59q70 0 115 -59l313 -412l-96 -94l-332 375l-334 -375z" />
<glyph unicode="_" d="M-20 -272h1159v-156h-1159v156z" />
<glyph unicode="`" horiz-adv-x="454" d="M-14 1503q18 43 102 43q80 0 143 -37l142 -288h-137z" />
<glyph unicode="a" horiz-adv-x="1062" d="M80 315q0 201 182 301q143 78 434 107v59q0 182 -219 183q-137 0 -276 -68l-58 143q172 84 379 84q408 0 408 -381v-684q-150 -80 -400 -79q-450 -1 -450 335zM315 324q0 -205 232 -205q88 0 149 31v454q-197 -25 -278 -76q-103 -63 -103 -204z" />
<glyph unicode="b" horiz-adv-x="1124" d="M133 59v1549h248v-535q98 45 217 45q195 0 314.5 -147.5t119.5 -392.5q0 -281 -139 -439.5t-395 -158.5q-242 -1 -365 79zM381 156q51 -23 127 -23q276 0 276 430q0 410 -254 410q-90 0 -149 -33v-784z" />
<glyph unicode="c" horiz-adv-x="851" d="M92 555q0 266 127 422q121 147 311 147q166 0 256 -75l-53 -142q-59 47 -147 47q-242 0 -242 -395q0 -186 62.5 -292.5t175.5 -106.5q90 0 149 49l57 -154q-84 -76 -260 -75q-193 0 -314.5 153.5t-121.5 421.5z" />
<glyph unicode="d" horiz-adv-x="1124" d="M92 539q0 266 135 424q131 152 348 151q96 0 166 -20v514h250v-1549q-143 -80 -385 -79q-244 0 -379 147.5t-135 411.5zM340 553q0 -414 272 -414q90 0 129 25v794q-49 14 -110 15q-291 0 -291 -420z" />
<glyph unicode="e" horiz-adv-x="1099" d="M92 555q0 268 126 418.5t345 150.5q221 0 336 -144q107 -135 107 -385v-36l-676 -98q31 -307 301 -307q160 0 278 61l60 -158q-141 -78 -365 -77q-238 0 -375 149.5t-137 425.5zM315 588l457 69q0 313 -217 314q-115 0 -176 -92q-64 -95 -64 -270v-21z" />
<glyph unicode="f" horiz-adv-x="679" d="M74 944v160h123v133q0 186 114 286q100 87 266 86q24 0 50 -1v-160q-180 -4 -181 -186v-158h181v-160h-181v-944h-249v944h-123z" />
<glyph unicode="g" d="M92 528q0 276 133 433q141 164 402 163q236 0 358 -80v-1060q0 -217 -121 -332t-332 -115q-246 0 -376 78l69 164q119 -66 264 -66q254 0 254 248v70q-72 -41 -206 -41q-201 0 -323 145t-122 393zM340 541q0 -406 262 -406q82 0 141 35v782q-43 25 -129 25 q-274 0 -274 -436z" />
<glyph unicode="h" horiz-adv-x="1136" d="M133 0v1608h250v-551q121 59 246 59q195 0 293 -102q82 -88 82 -232v-782h-250v776q0 186 -195 187q-100 0 -176 -45v-918h-250z" />
<glyph unicode="i" horiz-adv-x="532" d="M129 1417q0 51 40 88t97 37t97 -36t40 -89q0 -51 -39.5 -87t-97.5 -36q-57 0 -97 36t-40 87zM141 0v1104h250v-1104h-250z" />
<glyph unicode="j" horiz-adv-x="536" d="M-47 -293q193 66 192 361v1036h250v-1010q0 -246 -129 -397q-123 -141 -313 -156v166zM133 1417q0 51 40 88t97 37t97.5 -37t40.5 -88t-40 -87t-98 -36q-57 0 -97 36t-40 87z" />
<glyph unicode="k" horiz-adv-x="1046" d="M141 0v1608h248v-1004h4l350 500h254l-381 -506l426 -598h-280l-369 563h-4v-563h-248z" />
<glyph unicode="l" horiz-adv-x="536" d="M143 0v1608h250v-1608h-250z" />
<glyph unicode="m" horiz-adv-x="1757" d="M133 0v1044q166 80 414 80q233 0 344 -120q131 121 354 120q184 0 289 -104q90 -92 90 -234v-786h-250v784q0 180 -186 181q-109 0 -184 -76v-889h-250v791q0 176 -207 176q-90 0 -164 -31v-936h-250z" />
<glyph unicode="n" horiz-adv-x="1136" d="M133 0v1044q170 80 432 80q231 0 342 -102q96 -86 97 -236v-786h-250v782q0 184 -199 185q-94 0 -172 -31v-936h-250z" />
<glyph unicode="o" horiz-adv-x="1101" d="M92 551q0 258 113 410q123 164 346 163q225 0 346 -163q113 -152 113 -410q0 -256 -113 -408q-123 -164 -346 -163q-223 0 -346 163q-113 152 -113 408zM340 553q0 -403 211 -403t211 403q0 414 -211 414t-211 -414z" />
<glyph unicode="p" horiz-adv-x="1124" d="M133 -440v1484q150 80 383 80q242 0 379 -147.5t137 -411.5q0 -268 -133 -423.5t-352 -155.5q-109 0 -166 22v-448h-248zM381 154q43 -18 111 -19q293 0 292 422q0 418 -274 418q-74 0 -129 -23v-798z" />
<glyph unicode="q" horiz-adv-x="1124" d="M92 524q0 272 127 428q139 172 408 172q227 0 364 -80v-1484h-248v469q-86 -45 -211 -45q-199 0 -319.5 146t-120.5 394zM340 541q0 -406 260 -406q84 0 143 35v784q-45 23 -129 23q-274 0 -274 -436z" />
<glyph unicode="r" horiz-adv-x="696" d="M133 0v1044q163 79 461 79q35 0 72 -1l-50 -182q-55 18 -114 18q-72 0 -119 -26v-932h-250z" />
<glyph unicode="s" horiz-adv-x="849" d="M66 61l65 160q80 -63 207 -63q76 0 123 44t47 111q0 70 -37 110t-125 73q-252 96 -252 309q0 135 97.5 227t252.5 92q168 0 287 -77l-61 -146q-76 61 -176 62q-74 0 -116 -42t-42 -104q0 -109 164 -174q264 -106 264 -326q0 -139 -108.5 -237t-284.5 -98q-188 -1 -305 79 z" />
<glyph unicode="t" horiz-adv-x="702" d="M74 944v160h123v244l249 69v-313h181v-160h-181v-645q0 -143 121 -143q25 0 60 10v-156q-49 -23 -127 -22q-152 0 -234 92q-70 80 -69 207v657h-123z" />
<glyph unicode="u" d="M133 350v754h250v-768q0 -186 186 -186q102 0 166 36v918h250v-1038q-166 -88 -424 -89q-428 0 -428 373z" />
<glyph unicode="v" horiz-adv-x="1034" d="M43 1104h266l195 -713q23 -80 26 -151h5q10 59 28 151l199 713h233l-354 -1104h-238z" />
<glyph unicode="w" horiz-adv-x="1611" d="M57 1104h252l162 -715q18 -78 21 -145h4q10 55 28 145l195 715h209l186 -715q16 -66 27 -145h4q2 39 22 147l170 713h222l-308 -1104h-225l-190 692q-18 68 -23 142h-4q-6 -51 -25 -142l-194 -692h-225z" />
<glyph unicode="x" horiz-adv-x="1015" d="M33 0l342 571l-307 533h262l186 -361h4l195 361h235l-313 -516l346 -588h-274l-207 401h-4l-211 -401h-254z" />
<glyph unicode="y" horiz-adv-x="1034" d="M43 1104h266l191 -715q20 -80 22 -158h4q10 59 31 158l205 715h233l-503 -1544h-265l181 440z" />
<glyph unicode="z" horiz-adv-x="876" d="M57 0l420 944h-385v160h696l-405 -944h418v-160h-744z" />
<glyph unicode="{" horiz-adv-x="792" d="M90 612v131q168 6 168 224v303q0 338 432 338v-129q-215 0 -215 -197v-356q0 -209 -182 -246q2 -2 0 -4q182 -37 182 -252v-356q0 -197 215 -197v-131q-432 0 -432 338v307q0 221 -168 227z" />
<glyph unicode="|" horiz-adv-x="489" d="M145 -440v2048h199v-2048h-199z" />
<glyph unicode="}" horiz-adv-x="792" d="M102 -129q217 0 217 197v356q0 215 181 252v4q-180 37 -181 246v356q0 197 -217 197v129q432 0 433 -338v-303q0 -217 167 -224v-131q-168 -6 -167 -227v-307q0 -338 -433 -338v131z" />
<glyph unicode="~" horiz-adv-x="1218" d="M162 694q72 158 219 172q90 10 218 -63.5t200 -65.5q125 16 178 142l80 -154q-47 -143 -226 -166q-84 -10 -213 62.5t-204 64.5q-123 -14 -176 -143z" />
<glyph unicode="&#xa1;" horiz-adv-x="636" d="M190 -440l54 925h190l53 -925h-297zM190 831q0 63 43 106.5t107 43.5q61 0 105 -43t44 -107q0 -61 -44 -105t-105 -44q-63 0 -106.5 44t-43.5 105z" />
<glyph unicode="&#xa2;" d="M176 709q0 203 98 331q92 125 250 152l-20 215h155l-16 -209q141 -8 213 -63l-51 -125q-63 41 -146 41q-242 0 -241 -338q0 -160 62.5 -249t176.5 -89q84 0 148 39l53 -135q-74 -55 -219 -64l18 -213h-157l22 219q-162 27 -254 153t-92 335z" />
<glyph unicode="&#xa3;" d="M121 659v146h158q-39 139 -39 252q0 156 108 260q119 113 320 113q207 0 327 -76l-57 -154q-98 51 -217 51q-244 0 -244 -260q0 -86 29 -186h278v-146h-254q14 -70 15 -161q0 -76 -33 -172q-29 -82 -55 -119h557v-207h-881q211 246 211 485q0 82 -27 174h-196z" />
<glyph unicode="&#xa4;" d="M92 322l144 145q-76 104 -76 233q0 131 76 236l-144 143l88 88l146 -143q104 76 233 76q131 0 236 -76l143 143l88 -88l-143 -143q76 -104 75 -236q0 -127 -75 -235l143 -143l-88 -89l-143 144q-104 -76 -236 -76q-129 0 -233 78l-146 -146zM315 700q0 -100 72 -171.5 t172 -71.5q102 0 173 71.5t71 171.5q0 102 -70.5 173t-173.5 71q-100 0 -172 -71t-72 -173z" />
<glyph unicode="&#xa5;" d="M59 1409h260l248 -600h2l260 600h230l-246 -510l211 14v-112l-248 16l-92 -186l340 14v-115l-346 17l2 -547h-240v547l-348 -17v115l342 -14l-90 186l-252 -16v112l213 -14z" />
<glyph unicode="&#xa6;" horiz-adv-x="489" d="M145 373h199v-813h-199v813zM145 795v813h199v-813h-199z" />
<glyph unicode="&#xa7;" d="M145 553q0 199 232 346q-113 106 -113 244q0 117 92.5 198.5t237.5 81.5q170 0 283 -73l-58 -133q-88 53 -180 53q-154 0 -154 -133q0 -92 123 -197l183 -154q102 -86 143 -162.5t41 -177.5q0 -190 -236 -337q133 -123 133 -269q0 -127 -99 -212t-257 -85q-178 0 -297 80 l60 150q86 -63 192 -64q74 0 122 36t48 99q0 92 -98 174l-219 185q-100 86 -142 168q-37 76 -37 182zM330 586q0 -127 119 -228l178 -151q150 96 149 215q0 125 -114 223l-187 160q-145 -94 -145 -219z" />
<glyph unicode="&#xa8;" horiz-adv-x="454" d="M-74 1354q0 45 35 74.5t82 29.5t82 -29.5t35 -74.5t-35 -76t-82 -31t-82 31t-35 76zM293 1354q0 45 34.5 74.5t82.5 29.5q47 0 81.5 -29.5t34.5 -74.5t-34.5 -76t-81.5 -31t-82 31t-35 76z" />
<glyph unicode="&#xa9;" horiz-adv-x="1667" d="M109 702q0 301 211.5 514.5t513.5 213.5q299 0 512 -213t213 -515q0 -301 -212 -511.5t-513 -210.5t-513 210.5t-212 511.5zM215 702q0 -256 180 -436t439 -180q256 0 436 180t180 436t-180 438.5t-436 182.5q-258 0 -438.5 -181.5t-180.5 -439.5zM410 707q0 180 126 305 t304 125q195 0 325 -152l-88 -74q-100 113 -237 113q-131 0 -223.5 -93t-92.5 -224q0 -129 92.5 -222.5t223.5 -93.5q137 0 237 113l90 -72q-135 -154 -327 -153q-178 0 -304 126t-126 302z" />
<glyph unicode="&#xaa;" horiz-adv-x="749" d="M82 918q0 131 121 192q90 45 284 64v32q0 109 -139 109q-92 0 -178 -43l-39 100q102 51 248 51q270 0 270 -239v-426q-96 -53 -264 -53q-303 0 -303 213zM240 922q0 -119 153 -119q57 0 94 16v266q-129 -14 -180 -43q-67 -36 -67 -120z" />
<glyph unicode="&#xab;" horiz-adv-x="1087" d="M102 684l308 465l135 -82l-252 -383l252 -383l-135 -82zM512 684l307 465l137 -82l-251 -383l251 -383l-137 -82z" />
<glyph unicode="&#xac;" d="M156 602v164h807v-481h-170v317h-637z" />
<glyph unicode="&#xad;" d="M156 598v164h807v-164h-807z" />
<glyph unicode="&#x2212;" d="M156 598v164h807v-164h-807z" />
<glyph unicode="&#xae;" horiz-adv-x="1667" d="M109 702q0 301 211.5 514.5t513.5 213.5q299 0 512 -213t213 -515q0 -301 -212 -511.5t-513 -210.5t-513 210.5t-212 511.5zM215 702q0 -256 180 -436t439 -180q256 0 436 180t180 436q0 258 -180 440.5t-436 182.5q-258 0 -438.5 -182.5t-180.5 -440.5zM596 293v819 q90 43 209 43q129 0 211 -66.5t82 -175.5q0 -102 -64.5 -163.5t-171.5 -71.5l277 -385h-142l-260 377h-24v-377h-117zM713 748h63q201 0 201 165q0 145 -182 146q-37 0 -82 -12v-299z" />
<glyph unicode="&#xaf;" horiz-adv-x="454" d="M-84 1284v135h623v-135h-623z" />
<glyph unicode="&#x2c9;" horiz-adv-x="454" d="M-84 1284v135h623v-135h-623z" />
<glyph unicode="&#xb0;" horiz-adv-x="856" d="M113 1118q0 131 92 223.5t223 92.5t223 -92.5t92 -223.5t-92 -223t-223 -92t-223 92t-92 223zM236 1118q0 -80 56 -136t136 -56t136.5 56t56.5 136t-56.5 135.5t-136.5 55.5t-136 -55.5t-56 -135.5z" />
<glyph unicode="&#xb1;" d="M156 141v154h807v-154h-807zM156 743v154h321v328h164v-328h322v-154h-322v-329h-164v329h-321z" />
<glyph unicode="&#xb2;" horiz-adv-x="770" d="M84 545l307 432q76 106 76 180q0 129 -154 129q-78 0 -143 -33l-47 117q96 51 235 51q143 0 222 -71q70 -68 69 -172q0 -100 -112 -246l-189 -242h309v-145h-573z" />
<glyph unicode="&#xb3;" horiz-adv-x="770" d="M94 586l49 121q72 -39 168 -39q158 0 158 137q0 152 -223 147v103q201 18 200 139q0 102 -129 102q-78 0 -147 -34l-47 110q96 51 229 51q119 0 192.5 -55t73.5 -154q0 -123 -129 -182q166 -63 166 -225q0 -123 -89 -199t-226 -76q-150 1 -246 54z" />
<glyph unicode="&#xb4;" horiz-adv-x="454" d="M82 1221l141 288q63 37 144 37q84 0 102 -43l-250 -282h-137z" />
<glyph unicode="&#xb5;" horiz-adv-x="1136" d="M133 -440v1544h250v-918q88 -47 186 -47q115 0 185 37v928h250v-1036q-156 -84 -369 -84q-133 0 -252 61v-485h-250z" />
<glyph unicode="&#x3bc;" horiz-adv-x="1136" d="M133 -440v1544h250v-918q88 -47 186 -47q115 0 185 37v928h250v-1036q-156 -84 -369 -84q-133 0 -252 61v-485h-250z" />
<glyph unicode="&#xb6;" d="M51 1014q0 201 144 305q127 90 335 90h504v-117h-65v-1732h-162v1732h-246v-1732h-162v1077q-160 23 -254 123t-94 254z" />
<glyph unicode="&#xb7;" horiz-adv-x="536" d="M117 705q0 63 44 107t107 44t107.5 -44t44.5 -107t-44 -107.5t-108 -44.5q-63 0 -107 44.5t-44 107.5z" />
<glyph unicode="&#x2219;" horiz-adv-x="536" d="M117 705q0 63 44 107t107 44t107.5 -44t44.5 -107t-44 -107.5t-108 -44.5q-63 0 -107 44.5t-44 107.5z" />
<glyph unicode="&#xb8;" horiz-adv-x="454" d="M-47 -410l49 84q55 -4 104 -4q225 0 226 74q0 61 -146 61q-45 0 -106 -4l47 78q63 6 115 6q260 0 260 -139q0 -164 -375 -164q-80 0 -174 8z" />
<glyph unicode="&#xb9;" horiz-adv-x="770" d="M139 1278q211 25 279 131h125v-864h-176v667q-76 -27 -209 -36z" />
<glyph unicode="&#xba;" horiz-adv-x="749" d="M68 1067q0 160 78.5 259t228.5 99q152 0 231 -102q76 -94 76 -256q0 -160 -76 -256q-82 -104 -231 -104q-150 0 -232 104q-75 96 -75 256zM240 1069q0 -244 135 -244t135 244q0 250 -135 250t-135 -250z" />
<glyph unicode="&#xbb;" horiz-adv-x="1087" d="M131 301l252 383l-252 383l137 82l305 -465l-305 -465zM543 301l252 383l-252 383l135 82l307 -465l-307 -465z" />
<glyph unicode="&#xbc;" horiz-adv-x="1687" d="M84 1278q213 27 283 131h122v-864h-176v667q-76 -27 -211 -36zM432 16l658 1434l139 -57l-658 -1436zM975 178v109l344 577h166v-579h65v-107h-65v-178h-168v178h-342zM1087 285h230v286q0 55 2 119h-4q-12 -31 -58 -117z" />
<glyph unicode="&#xbd;" horiz-adv-x="1687" d="M84 1278q213 27 283 131h122v-864h-176v667q-76 -27 -211 -36zM399 16l658 1434l139 -57l-657 -1436zM981 0l307 426q74 102 74 186q0 131 -154 131q-66 0 -131 -32l-47 114q102 51 223 52q143 0 222 -74q70 -68 69 -172q0 -109 -112 -250l-189 -236h307v-145h-569z" />
<glyph unicode="&#xbe;" horiz-adv-x="1687" d="M94 586l49 121q72 -39 170 -39q156 0 156 137q0 152 -223 147v103q201 18 200 139q0 102 -129 102q-78 0 -147 -34l-47 110q96 51 229 51q119 0 192.5 -55t73.5 -154q0 -123 -129 -182q166 -63 166 -225q0 -123 -89 -199t-226 -76q-150 1 -246 54zM496 16l657 1434 l139 -57l-659 -1436zM985 178v109l344 577h166v-579h66v-107h-66v-178h-168v178h-342zM1098 285h229v286q0 53 2 119q-12 -29 -61 -117z" />
<glyph unicode="&#xbf;" horiz-adv-x="864" d="M80 -115q0 127 106 226q82 78 193 110l22 264h189l31 -338q-115 -25 -191 -81q-88 -68 -88 -160q0 -188 219 -189q106 0 209 54l68 -148q-141 -80 -324 -80q-201 0 -317.5 93t-116.5 249zM344 834q0 61 44 105t106 44q63 0 106 -44t43 -105q0 -63 -43 -106.5t-106 -43.5 q-61 0 -105.5 43.5t-44.5 106.5z" />
<glyph unicode="&#xc0;" horiz-adv-x="1226" d="M25 0l467 1409h245l465 -1409h-268l-109 362h-454l-113 -362h-233zM305 1798q16 43 101 43q80 0 145 -39l141 -286h-139zM412 514h376l-145 496q-31 104 -37 166h-4q-10 -53 -39 -166z" />
<glyph unicode="&#xc1;" horiz-adv-x="1226" d="M25 0l467 1409h245l465 -1409h-268l-109 362h-454l-113 -362h-233zM412 514h376l-145 496q-31 104 -37 166h-4q-10 -53 -39 -166zM518 1516l141 286q63 39 146 39q82 0 100 -43l-250 -282h-137z" />
<glyph unicode="&#xc2;" horiz-adv-x="1226" d="M25 0l467 1409h245l465 -1409h-268l-109 362h-454l-113 -362h-233zM326 1567l209 211q35 35 77 34q47 0 82 -34l207 -211l-67 -62l-220 158l-219 -158zM412 514h376l-145 496q-31 104 -37 166h-4q-10 -53 -39 -166z" />
<glyph unicode="&#xc3;" horiz-adv-x="1226" d="M25 0l467 1409h245l465 -1409h-268l-109 362h-454l-113 -362h-233zM303 1630q47 106 154 117q63 6 148 -41t132 -41q84 10 119 94l62 -112q-33 -96 -150 -111q-61 -8 -150.5 39t-138.5 41q-80 -8 -117 -96zM412 514h376l-145 496q-31 104 -37 166h-4q-10 -53 -39 -166z " />
<glyph unicode="&#xc4;" horiz-adv-x="1226" d="M25 0l467 1409h245l465 -1409h-268l-109 362h-454l-113 -362h-233zM313 1642q0 45 35 76t82 31t82 -30.5t35 -76.5q0 -45 -35 -74.5t-82 -29.5t-82 29.5t-35 74.5zM412 514h376l-145 496q-31 104 -37 166h-4q-10 -53 -39 -166zM682 1642q0 45 35 76t82 31t81.5 -30.5 t34.5 -76.5q0 -45 -34.5 -74.5t-81.5 -29.5t-82 29.5t-35 74.5z" />
<glyph unicode="&#xc5;" horiz-adv-x="1226" d="M25 0l467 1409h245l465 -1409h-268l-109 362h-454l-113 -362h-233zM412 514h376l-145 496q-31 104 -37 166h-4q-10 -53 -39 -166zM442 1679q0 72 50.5 123t121.5 51q72 0 122 -51t50 -123q0 -70 -50 -121t-122 -51t-122 50t-50 122zM524 1679q0 -37 25.5 -63.5 t64.5 -26.5q37 0 64 26.5t27 63.5q0 39 -27 64.5t-64 25.5q-39 0 -64.5 -25.5t-25.5 -64.5z" />
<glyph unicode="&#xc6;" horiz-adv-x="1538" d="M-6 0l590 1409h766v-174h-484l107 -426h377v-172h-338l114 -463h363v-174h-578l-80 360h-456l-144 -360h-237zM434 516h377l-111 531q-14 66 -16 135h-4q-6 -31 -41 -135z" />
<glyph unicode="&#xc7;" horiz-adv-x="993" d="M100 705q0 305 138 505q150 219 405 220q180 0 291 -80l-57 -156q-82 49 -183 49q-168 0 -252 -166q-72 -141 -71 -370q0 -225 75 -367q86 -162 248 -162q100 0 178 49l62 -168q-102 -80 -293 -79q-258 0 -405 215q-136 201 -136 510zM279 -410l49 84q55 -4 104 -4 q225 0 225 74q0 61 -145 61q-45 0 -106 -4l47 78q63 6 114 6q260 0 260 -139q0 -164 -376 -164q-80 0 -172 8z" />
<glyph unicode="&#xc8;" horiz-adv-x="919" d="M145 0v1409h686v-174h-425v-426h378v-172h-378v-463h425v-174h-686zM215 1798q16 43 100 43q80 0 146 -39l141 -286h-139z" />
<glyph unicode="&#xc9;" horiz-adv-x="919" d="M145 0v1409h686v-174h-425v-426h378v-172h-378v-463h425v-174h-686zM373 1516l141 286q66 39 145 39q82 0 101 -43l-248 -282h-139z" />
<glyph unicode="&#xca;" horiz-adv-x="919" d="M145 0v1409h686v-174h-425v-426h378v-172h-378v-463h425v-174h-686zM186 1567l209 211q35 35 80 34q45 0 80 -34l209 -211l-70 -62l-217 158l-221 -158z" />
<glyph unicode="&#xcb;" horiz-adv-x="919" d="M145 0v1409h689v-174h-426v-426h376v-172h-376v-463h426v-174h-689zM182 1642q0 45 35 76t82 31t82 -30.5t35 -76.5q0 -45 -35 -74.5t-82 -29.5t-82 29.5t-35 74.5zM549 1642q0 45 34.5 76t82.5 31q47 0 81.5 -30.5t34.5 -76.5q0 -45 -34.5 -74.5t-81.5 -29.5t-82 29.5 t-35 74.5z" />
<glyph unicode="&#xcc;" horiz-adv-x="561" d="M20 1798q16 43 101 43q80 0 145 -39l142 -286h-140zM152 0v1409h260v-1409h-260z" />
<glyph unicode="&#xcd;" horiz-adv-x="561" d="M150 0v1409h262v-1409h-262zM154 1516l141 286q66 39 145 39q84 0 101 -43l-248 -282h-139z" />
<glyph unicode="&#xce;" horiz-adv-x="561" d="M-6 1567l207 211q35 35 80 34q45 0 79 -34l207 -211l-67 -62l-219 158l-220 -158zM150 0v1409h262v-1409h-262z" />
<glyph unicode="&#xcf;" horiz-adv-x="561" d="M-20 1642q0 45 34.5 76t81.5 31t82 -30.5t35 -76.5q0 -45 -35 -74.5t-82 -29.5t-81.5 29.5t-34.5 74.5zM150 0v1409h260v-1409h-260zM348 1642q0 45 35 76t82 31t82 -30.5t35 -76.5q0 -45 -35 -74.5t-82 -29.5t-82 29.5t-35 74.5z" />
<glyph unicode="&#xd0;" horiz-adv-x="1292" d="M78 682v149h112v519q156 80 390 80q307 0 464 -199q147 -186 148 -516q0 -334 -141 -525q-154 -211 -461 -210q-262 0 -400 79v623h-112zM444 178q55 -20 140 -20q182 0 264 135t82 426q0 545 -350 545q-78 0 -136 -23v-410h201v-149h-201v-504z" />
<glyph unicode="&#xd1;" horiz-adv-x="1331" d="M145 0v1409h246l504 -856q43 -74 76 -143h4q-6 74 -6 149v850h217v-1409h-209l-535 909q-43 74 -82 158h-4q8 -86 9 -164v-903h-220zM356 1630q43 106 154 117q61 6 146 -41t135 -41q86 10 116 94l64 -112q-37 -96 -152 -111q-61 -8 -150 39t-137 41q-82 -8 -118 -96z " />
<glyph unicode="&#xd2;" horiz-adv-x="1259" d="M100 705q0 324 123 512q139 213 408 213q268 0 405 -213q123 -188 123 -512t-123 -512q-137 -213 -405 -213q-270 0 -408 213q-123 188 -123 512zM360 1798q18 43 103 43q80 0 143 -39l142 -286h-138zM365 713q0 -541 266 -541q264 0 264 541q0 545 -264 544 q-266 1 -266 -544z" />
<glyph unicode="&#xd3;" horiz-adv-x="1259" d="M100 705q0 324 123 512q139 213 408 213q268 0 405 -213q123 -188 123 -512t-123 -512q-137 -213 -405 -213q-270 0 -408 213q-123 188 -123 512zM365 713q0 -541 266 -541q264 0 264 541q0 545 -264 544q-266 1 -266 -544zM504 1516l143 286q63 39 144 39q84 0 100 -43 l-248 -282h-139z" />
<glyph unicode="&#xd4;" horiz-adv-x="1259" d="M100 705q0 324 123 512q139 213 408 213q268 0 405 -213q123 -188 123 -512t-123 -512q-137 -213 -405 -213q-270 0 -408 213q-123 188 -123 512zM342 1567l209 211q35 35 80 34q45 0 80 -34l209 -211l-70 -62l-217 158l-221 -158zM365 713q0 -541 266 -541 q264 0 264 541q0 545 -264 544q-266 1 -266 -544z" />
<glyph unicode="&#xd5;" horiz-adv-x="1259" d="M100 705q0 324 123 512q139 213 408 213q268 0 405 -213q123 -188 123 -512t-123 -512q-137 -213 -405 -213q-270 0 -408 213q-123 188 -123 512zM319 1630q47 106 156 117q61 6 146.5 -41t132.5 -41q84 10 118 94l62 -112q-33 -96 -150 -111q-61 -8 -150 39t-138 41 q-80 -8 -117 -96zM365 713q0 -541 266 -541q264 0 264 541q0 545 -264 544q-266 1 -266 -544z" />
<glyph unicode="&#xd6;" horiz-adv-x="1259" d="M100 705q0 324 123 512q139 213 408 213q268 0 405 -213q123 -188 123 -512t-123 -512q-137 -213 -405 -213q-270 0 -408 213q-123 188 -123 512zM330 1642q0 45 34.5 76t81.5 31t82 -30.5t35 -76.5q0 -45 -34.5 -74.5t-82.5 -29.5q-47 0 -81.5 29.5t-34.5 74.5zM365 713 q0 -541 266 -541q264 0 264 541q0 545 -264 544q-266 1 -266 -544zM698 1642q0 45 35 76t82 31t82 -30.5t35 -76.5q0 -45 -35 -74.5t-82 -29.5t-82 29.5t-35 74.5z" />
<glyph unicode="&#xd7;" d="M145 348l306 332l-306 334l111 108l303 -327l301 327l113 -110l-305 -332l305 -334l-111 -108l-303 329l-301 -327z" />
<glyph unicode="&#xd8;" horiz-adv-x="1267" d="M104 705q0 324 123 512q139 213 408 213q197 0 323 -123l109 172l76 -47l-121 -191q141 -188 141 -536q0 -324 -123 -512q-137 -213 -405 -213q-209 0 -334 129l-111 -175l-75 48l123 194q-134 193 -134 529zM350 713q0 -180 43 -291l451 706q-72 145 -209 146 q-285 0 -285 -561zM422 299q72 -145 213 -145q283 0 283 559q0 176 -46 295z" />
<glyph unicode="&#xd9;" horiz-adv-x="1220" d="M145 410v999h261v-997q0 -109 61 -171.5t154 -62.5q92 0 152.5 61.5t60.5 172.5v997h241v-999q0 -193 -129 -313t-336 -120t-336 120t-129 313zM369 1798q18 43 100 43q80 0 145 -39l142 -286h-138z" />
<glyph unicode="&#xda;" horiz-adv-x="1220" d="M145 410v999h261v-997q0 -109 61 -171.5t154 -62.5q92 0 152.5 61.5t60.5 172.5v997h241v-999q0 -193 -129 -313t-336 -120t-336 120t-129 313zM494 1516l141 286q63 39 145 39t101 -43l-250 -282h-137z" />
<glyph unicode="&#xdb;" horiz-adv-x="1220" d="M145 410v999h261v-997q0 -109 61 -171.5t154 -62.5q92 0 152.5 61.5t60.5 172.5v997h241v-999q0 -193 -129 -313t-336 -120t-336 120t-129 313zM330 1567l209 211q35 35 77 34q47 0 82 -34l209 -211l-69 -62l-220 158l-219 -158z" />
<glyph unicode="&#xdc;" horiz-adv-x="1220" d="M145 410v999h261v-997q0 -109 61 -171.5t154 -62.5q92 0 152.5 61.5t60.5 172.5v997h241v-999q0 -193 -129 -313t-336 -120t-336 120t-129 313zM322 1642q0 45 34.5 76t81.5 31t82 -30.5t35 -76.5q0 -45 -35 -74.5t-82 -29.5t-81.5 29.5t-34.5 74.5zM690 1642q0 45 34 76 t83 31q47 0 82 -30.5t35 -76.5q0 -45 -35 -74.5t-82 -29.5q-49 0 -83 29.5t-34 74.5z" />
<glyph unicode="&#xdd;" horiz-adv-x="1054" d="M18 1409h281l242 -584h4l250 584h245l-383 -801v-608h-260v608zM434 1516l141 286q63 39 146 39q82 0 100 -43l-250 -282h-137z" />
<glyph unicode="&#xde;" horiz-adv-x="1128" d="M145 0v1409h256v-240q72 20 142 21q250 0 381 -125q119 -117 118 -317q0 -190 -120 -308q-135 -129 -387 -129q-39 0 -78 2l-56 4v-317h-256zM401 475l48 -4q27 -2 53 -2q291 0 291 272q0 147 -72 224t-199 77q-61 0 -121 -18v-549z" />
<glyph unicode="&#xdf;" horiz-adv-x="1179" d="M137 0v1061q0 240 103 391q119 174 348 174q203 0 321 -141q109 -129 109 -332q0 -113 -27 -188q-195 -29 -194 -174q0 -92 131 -181q170 -115 170 -291q0 -150 -105.5 -241.5t-259.5 -91.5q-145 0 -219 53l45 164q55 -35 131 -35q70 0 116 43t46 115q0 100 -129 184 q-158 102 -158 262q0 190 197 254q14 47 14 121q0 311 -188 311q-201 0 -201 -379v-1079h-250z" />
<glyph unicode="&#xe0;" horiz-adv-x="1062" d="M80 315q0 201 182 301q143 78 434 107v59q0 182 -219 183q-137 0 -276 -68l-58 143q172 84 379 84q408 0 408 -381v-684q-150 -80 -400 -79q-450 -1 -450 335zM279 1503q18 43 102 43q80 0 143 -37l142 -288h-138zM315 324q0 -205 232 -205q88 0 149 31v454 q-197 -25 -278 -76q-103 -63 -103 -204z" />
<glyph unicode="&#xe1;" horiz-adv-x="1062" d="M80 315q0 201 182 301q143 78 434 107v59q0 182 -219 183q-137 0 -276 -68l-58 143q172 84 379 84q408 0 408 -381v-684q-150 -80 -400 -79q-450 -1 -450 335zM315 324q0 -205 232 -205q88 0 149 31v454q-197 -25 -278 -76q-103 -63 -103 -204zM451 1221l143 288 q63 37 143 37q84 0 101 -43l-248 -282h-139z" />
<glyph unicode="&#xe2;" horiz-adv-x="1062" d="M80 315q0 201 182 301q143 78 434 107v59q0 182 -219 183q-137 0 -276 -68l-58 143q172 84 379 84q408 0 408 -381v-684q-150 -80 -400 -79q-450 -1 -450 335zM250 1272l209 211q35 35 80 35t79 -35l209 -211l-69 -62l-217 160l-222 -160zM315 324q0 -205 232 -205 q88 0 149 31v454q-197 -25 -278 -76q-103 -63 -103 -204z" />
<glyph unicode="&#xe3;" horiz-adv-x="1062" d="M80 315q0 201 182 301q143 78 434 107v59q0 182 -219 183q-137 0 -276 -68l-58 143q172 84 379 84q408 0 408 -381v-684q-150 -80 -400 -79q-450 -1 -450 335zM225 1337q47 104 154 115q63 6 148 -39t132 -41q84 8 119 94l62 -114q-37 -94 -152 -109q-61 -8 -150 37 t-137 41q-84 -8 -116 -96zM315 324q0 -205 232 -205q88 0 149 31v454q-197 -25 -278 -76q-103 -63 -103 -204z" />
<glyph unicode="&#xe4;" horiz-adv-x="1062" d="M80 315q0 201 182 301q143 78 434 107v59q0 182 -219 183q-137 0 -276 -68l-58 143q172 84 379 84q408 0 408 -381v-684q-150 -80 -400 -79q-450 -1 -450 335zM246 1354q0 45 33.5 74.5t80.5 29.5q49 0 84 -30.5t35 -73.5q0 -45 -35.5 -76t-83.5 -31q-47 0 -80.5 31 t-33.5 76zM315 324q0 -205 232 -205q88 0 149 31v454q-197 -25 -278 -76q-103 -63 -103 -204zM614 1354q0 45 34 74.5t81 29.5t82 -29.5t35 -74.5t-35 -76t-82 -31t-81 31t-34 76z" />
<glyph unicode="&#xe5;" horiz-adv-x="1062" d="M80 315q0 201 182 301q143 78 434 107v59q0 182 -219 183q-137 0 -276 -68l-58 143q172 84 379 84q408 0 408 -381v-684q-150 -80 -400 -79q-450 -1 -450 335zM315 324q0 -205 232 -205q88 0 149 31v454q-197 -25 -278 -76q-103 -63 -103 -204zM371 1386q0 72 51 122.5 t123 50.5t122 -50.5t50 -122.5t-50.5 -123t-121.5 -51q-72 0 -123 51t-51 123zM455 1386q0 -39 25.5 -64.5t64.5 -25.5q37 0 63.5 26t26.5 64q0 37 -26.5 64t-63.5 27q-39 0 -64.5 -27t-25.5 -64z" />
<glyph unicode="&#xe6;" horiz-adv-x="1673" d="M80 315q0 344 610 408v59q0 184 -225 185q-127 0 -266 -66l-54 141q152 82 367 82q229 0 307 -174q104 174 320 174q219 0 332.5 -144t107.5 -423l-672 -96q25 -309 299 -309q164 0 275 57l61 -152q-145 -78 -366 -77q-231 0 -353 182q-92 -182 -334 -182 q-409 -1 -409 335zM305 322q0 -201 197 -201q80 0 134 50t54 134v293q-197 -23 -280 -74q-105 -63 -105 -202zM893 590l453 67q-2 315 -220 316q-109 0 -168 -92q-67 -101 -65 -291z" />
<glyph unicode="&#xe7;" horiz-adv-x="851" d="M92 555q0 266 127 422q121 147 311 147q166 0 256 -75l-53 -142q-59 47 -147 47q-242 0 -242 -395q0 -186 62.5 -292.5t175.5 -106.5q90 0 149 49l57 -154q-84 -76 -260 -75q-193 0 -314.5 153.5t-121.5 421.5zM164 -410l49 84q55 -4 104 -4q225 0 226 74q0 61 -146 61 q-45 0 -106 -4l47 78q63 6 115 6q260 0 260 -139q0 -164 -375 -164q-80 0 -174 8z" />
<glyph unicode="&#xe8;" horiz-adv-x="1099" d="M92 555q0 268 126 418.5t345 150.5q221 0 336 -144t107 -421l-676 -98q31 -307 301 -307q160 0 278 61l60 -158q-141 -78 -365 -77q-238 0 -375 149.5t-137 425.5zM283 1503q18 43 102 43q80 0 143 -37l142 -288h-138zM315 588l457 69q0 313 -217 314q-115 0 -176 -92 q-68 -101 -64 -291z" />
<glyph unicode="&#xe9;" horiz-adv-x="1099" d="M92 555q0 268 126 418.5t345 150.5q221 0 336 -144t107 -421l-676 -98q31 -307 301 -307q160 0 278 61l60 -158q-141 -78 -365 -77q-238 0 -375 149.5t-137 425.5zM315 588l457 69q0 313 -217 314q-115 0 -176 -92q-68 -101 -64 -291zM463 1221l143 288q63 37 144 37 q84 0 100 -43l-248 -282h-139z" />
<glyph unicode="&#xea;" horiz-adv-x="1099" d="M92 555q0 268 126 418.5t345 150.5q221 0 336 -144t107 -421l-676 -98q31 -307 301 -307q160 0 278 61l60 -158q-141 -78 -365 -77q-238 0 -375 149.5t-137 425.5zM270 1272l209 211q35 35 80 35t80 -35l209 -211l-70 -62l-219 160l-219 -160zM315 588l457 69 q0 313 -217 314q-115 0 -176 -92q-68 -101 -64 -291z" />
<glyph unicode="&#xeb;" horiz-adv-x="1099" d="M92 555q0 268 126 418.5t345 150.5q221 0 336 -144t107 -421l-676 -98q31 -307 301 -307q160 0 278 61l60 -158q-141 -78 -365 -77q-238 0 -375 149.5t-137 425.5zM262 1354q0 45 35 74.5t82 29.5t82 -29.5t35 -74.5t-35 -76t-82 -31t-82 31t-35 76zM315 588l457 69 q0 313 -217 314q-115 0 -176 -92q-68 -101 -64 -291zM631 1354q0 45 33.5 74.5t83.5 29.5q47 0 81.5 -29.5t34.5 -74.5t-34.5 -76t-81.5 -31q-49 0 -83 31t-34 76z" />
<glyph unicode="&#xec;" horiz-adv-x="532" d="M6 1503q16 43 100 43q80 0 144 -37l143 -288h-139zM141 0v1104h250v-1104h-250z" />
<glyph unicode="&#xed;" horiz-adv-x="532" d="M141 0v1104h250v-1104h-250zM141 1221l142 288q63 37 143 37q84 0 102 -43l-249 -282h-138z" />
<glyph unicode="&#xee;" horiz-adv-x="532" d="M-23 1272l209 211q35 35 80 35t80 -35l209 -211l-70 -62l-217 160l-221 -160zM143 0v1104h248v-1104h-248z" />
<glyph unicode="&#xef;" horiz-adv-x="532" d="M-33 1354q0 45 34 74.5t81 29.5q49 0 84 -30.5t35 -73.5q0 -45 -36 -76t-83 -31t-81 31t-34 76zM141 0v1104h250v-1104h-250zM334 1354q0 45 33.5 74.5t83.5 29.5q47 0 81.5 -29.5t34.5 -74.5t-34.5 -76t-81.5 -31q-49 0 -83 31t-34 76z" />
<glyph unicode="&#xf0;" horiz-adv-x="1110" d="M92 545q0 240 109 395q121 174 334 174q63 0 122 -16q-68 160 -127 252l-184 -58q-27 53 -65 97l180 55q-41 59 -96 117l208 65q29 -29 97 -113l164 52q27 -31 67 -95l-164 -53q272 -432 273 -864q0 -262 -111 -414q-119 -162 -342 -162q-217 0 -341 154t-124 414z M340 551q0 -401 217 -401q205 0 205 407q0 223 -66 395q-61 16 -116 17q-240 0 -240 -418z" />
<glyph unicode="&#xf1;" horiz-adv-x="1136" d="M133 0v1044q170 80 436 80q434 0 435 -333v-791h-250v791q0 176 -199 176q-94 0 -172 -31v-936h-250zM254 1337q47 104 156 115q61 6 146 -39t132 -41q84 8 119 94l61 -114q-35 -94 -149 -109q-61 -8 -150.5 37t-138.5 41q-78 -8 -117 -96z" />
<glyph unicode="&#xf2;" horiz-adv-x="1101" d="M92 551q0 258 113 410q123 164 346 163q225 0 346 -163q113 -152 113 -410q0 -256 -113 -408q-123 -164 -346 -163q-223 0 -346 163q-113 152 -113 408zM270 1503q16 43 101 43q82 0 145 -37l141 -288h-139zM340 553q0 -403 211 -403t211 403q0 414 -211 414t-211 -414z " />
<glyph unicode="&#xf3;" horiz-adv-x="1101" d="M92 551q0 258 113 410q123 164 346 163q225 0 346 -163q113 -152 113 -410q0 -256 -113 -408q-123 -164 -346 -163q-223 0 -346 163q-113 152 -113 408zM340 553q0 -403 211 -403t211 403q0 414 -211 414t-211 -414zM451 1221l143 288q63 37 143 37q84 0 101 -43 l-248 -282h-139z" />
<glyph unicode="&#xf4;" horiz-adv-x="1101" d="M92 551q0 258 113 410q123 164 346 163q225 0 346 -163q113 -152 113 -410q0 -256 -113 -408q-123 -164 -346 -163q-223 0 -346 163q-113 152 -113 408zM262 1272l209 211q35 35 80 35t80 -35l209 -211l-70 -62l-219 160l-219 -160zM340 553q0 -403 211 -403t211 403 q0 414 -211 414t-211 -414z" />
<glyph unicode="&#xf5;" horiz-adv-x="1101" d="M92 551q0 258 113 410q123 164 346 163q225 0 346 -163q113 -152 113 -410q0 -256 -113 -408q-123 -164 -346 -163q-223 0 -346 163q-113 152 -113 408zM242 1337q43 104 153 115q61 6 147.5 -39t133.5 -41q86 8 117 94l63 -114q-37 -94 -151 -109q-61 -8 -150.5 37 t-136.5 41q-82 -8 -119 -96zM340 553q0 -403 211 -403t211 403q0 414 -211 414t-211 -414z" />
<glyph unicode="&#xf6;" horiz-adv-x="1101" d="M92 551q0 258 113 410q123 164 346 163q225 0 346 -163q113 -152 113 -410q0 -256 -113 -408q-123 -164 -346 -163q-223 0 -346 163q-113 152 -113 408zM250 1354q0 45 34.5 74.5t82.5 29.5q47 0 81.5 -29.5t34.5 -74.5t-34.5 -76t-81.5 -31t-82 31t-35 76zM340 553 q0 -403 211 -403t211 403q0 414 -211 414t-211 -414zM618 1354q0 45 34 74.5t81 29.5q49 0 84 -30.5t35 -73.5q0 -45 -36 -76t-83 -31t-81 31t-34 76z" />
<glyph unicode="&#xf7;" d="M156 614v129h807v-129h-807zM440 350q0 49 35 84t84 35q47 0 82 -35t35 -84t-35 -83t-82 -34q-49 0 -84 34t-35 83zM440 1008q0 49 35 83.5t84 34.5q47 0 82 -34.5t35 -83.5t-35 -83t-82 -34q-49 0 -84 34t-35 83z" />
<glyph unicode="&#xf8;" horiz-adv-x="1110" d="M92 551q0 258 115 410q123 164 346 163q141 0 246 -71l90 157l63 -36l-96 -164q162 -156 162 -459q0 -254 -115 -408q-125 -164 -348 -163q-150 0 -250 75l-94 -161l-64 34l101 172q-156 154 -156 451zM322 555q0 -158 40 -254l351 602q-61 84 -158 84q-233 0 -233 -432z M397 217q61 -84 158 -84q231 0 231 422q0 170 -41 264z" />
<glyph unicode="&#xf9;" d="M133 350v754h250v-768q0 -186 186 -186q102 0 166 36v918h250v-1038q-166 -88 -424 -89q-428 0 -428 373zM299 1503q16 43 100 43q82 0 146 -37l141 -288h-139z" />
<glyph unicode="&#xfa;" d="M133 350v754h250v-768q0 -186 186 -186q102 0 166 36v918h250v-1038q-166 -88 -424 -89q-428 0 -428 373zM461 1221l141 288q63 37 146 37q84 0 100 -43l-248 -282h-139z" />
<glyph unicode="&#xfb;" d="M133 350v754h250v-768q0 -186 186 -186q102 0 166 36v918h250v-1038q-166 -88 -424 -89q-428 0 -428 373zM272 1272l207 211q35 35 80 35t80 -35l209 -211l-70 -62l-217 160l-221 -160z" />
<glyph unicode="&#xfc;" d="M133 350v754h250v-768q0 -186 186 -186q102 0 166 36v918h250v-1038q-166 -88 -424 -89q-428 0 -428 373zM258 1354q0 45 35 74.5t82 29.5t82 -29.5t35 -74.5t-35 -76t-82 -31t-82 31t-35 76zM627 1354q0 45 33.5 74.5t82.5 29.5q47 0 82 -29.5t35 -74.5t-34.5 -76 t-82.5 -31q-49 0 -82.5 31t-33.5 76z" />
<glyph unicode="&#xfd;" horiz-adv-x="1034" d="M43 1104h266l219 -825h4l228 825h235l-503 -1544h-267l185 440zM426 1221l141 288q63 37 146 37q84 0 100 -43l-248 -282h-139z" />
<glyph unicode="&#xfe;" horiz-adv-x="1126" d="M133 -440v2048h248v-533q86 45 192 45q211 0 336 -143t125 -399q0 -274 -141 -437q-137 -154 -352 -153q-88 0 -158 20v-448h-250zM383 152q61 -16 109 -17q295 0 294 422q0 416 -274 416q-68 0 -129 -29v-792z" />
<glyph unicode="&#xff;" horiz-adv-x="1034" d="M43 1104h266l219 -825h4l228 825h235l-503 -1544h-267l185 440zM231 1354q0 45 35 74.5t82 29.5t82 -29.5t35 -74.5t-35 -76t-82 -31t-82 31t-35 76zM600 1354q0 45 34 74.5t81 29.5q49 0 84 -30.5t35 -73.5q0 -45 -36 -76t-83 -31t-81 31t-34 76z" />
<glyph unicode="&#x152;" horiz-adv-x="1568" d="M100 705q0 334 140 522q150 203 434 203q94 0 172 -21h635v-174h-426v-426h379v-172h-379v-461h426v-176h-635q-70 -20 -170 -20q-285 0 -434 202q-142 191 -142 523zM367 709q0 -555 319 -555q76 0 125 12v1085q-57 16 -125 17q-319 0 -319 -559z" />
<glyph unicode="&#x153;" horiz-adv-x="1738" d="M92 551q0 258 115 410q121 164 340 163q213 0 321 -200q109 201 336 200q449 0 441 -573l-668 -80q31 -319 297 -319q162 0 274 61l60 -156q-145 -78 -365 -77q-258 0 -369 221q-100 -221 -327 -221q-221 0 -342 163q-113 152 -113 408zM334 555q0 -406 213 -405 q211 0 211 405q0 184 -33 276q-49 135 -178 136q-213 0 -213 -412zM963 600l448 53q0 326 -219 326q-109 0 -170 -92q-65 -101 -59 -287z" />
<glyph unicode="&#x178;" horiz-adv-x="1054" d="M18 1409h281l242 -584h4l250 584h245l-383 -801v-608h-260v608zM240 1642q0 45 33.5 76t80.5 31t83 -30.5t36 -76.5q0 -43 -35 -73.5t-84 -30.5q-47 0 -80.5 29.5t-33.5 74.5zM608 1642q0 45 34 76t81 31t82 -30.5t35 -76.5q0 -45 -35 -74.5t-82 -29.5t-81 29.5t-34 74.5 z" />
<glyph unicode="&#x2c6;" horiz-adv-x="454" d="M-61 1272l208 211q35 35 80 35t80 -35l209 -211l-70 -62l-219 160l-219 -160z" />
<glyph unicode="&#x2dc;" horiz-adv-x="454" d="M-80 1337q47 104 154 115q63 6 148 -39t132 -41q84 8 119 94l62 -114q-33 -94 -152 -109q-61 -8 -150.5 37t-136.5 41q-84 -8 -116 -96z" />
<glyph unicode="&#x2000;" horiz-adv-x="925" />
<glyph unicode="&#x2001;" horiz-adv-x="1853" />
<glyph unicode="&#x2002;" horiz-adv-x="925" />
<glyph unicode="&#x2003;" horiz-adv-x="1853" />
<glyph unicode="&#x2004;" horiz-adv-x="616" />
<glyph unicode="&#x2005;" horiz-adv-x="462" />
<glyph unicode="&#x2006;" horiz-adv-x="307" />
<glyph unicode="&#x2007;" horiz-adv-x="307" />
<glyph unicode="&#x2008;" horiz-adv-x="231" />
<glyph unicode="&#x2009;" horiz-adv-x="370" />
<glyph unicode="&#x200a;" horiz-adv-x="102" />
<glyph unicode="&#x2010;" horiz-adv-x="716" d="M109 594v190h499v-190h-499z" />
<glyph unicode="&#x2011;" horiz-adv-x="716" d="M109 594v190h499v-190h-499z" />
<glyph unicode="&#x2012;" horiz-adv-x="716" d="M109 594v190h499v-190h-499z" />
<glyph unicode="&#x2013;" horiz-adv-x="839" d="M0 608v158h840v-158h-840z" />
<glyph unicode="&#x2014;" horiz-adv-x="1679" d="M0 618v136h1679v-136h-1679z" />
<glyph unicode="&#x2018;" horiz-adv-x="587" d="M102 1059l285 549h129l-174 -549q-51 -72 -145 -72q-81 0 -95 72z" />
<glyph unicode="&#x2019;" horiz-adv-x="587" d="M72 997l174 549q51 72 143 72q80 0 96 -72l-284 -549h-129z" />
<glyph unicode="&#x201a;" horiz-adv-x="587" d="M72 -346l174 549q51 72 145 71q76 0 94 -71l-284 -549h-129z" />
<glyph unicode="&#x201c;" horiz-adv-x="987" d="M102 1059l285 549h129l-174 -549q-51 -72 -145 -72q-81 0 -95 72zM504 1059l282 549h129l-172 -549q-51 -72 -145 -72q-80 0 -94 72z" />
<glyph unicode="&#x201d;" horiz-adv-x="987" d="M72 997l174 549q51 72 143 72q80 0 96 -72l-284 -549h-129zM473 997l172 549q51 72 146 72q82 0 94 -72l-285 -549h-127z" />
<glyph unicode="&#x201e;" horiz-adv-x="987" d="M72 -346l174 549q51 72 143 71q78 0 96 -71l-284 -549h-129zM473 -346l172 549q51 72 146 71q80 0 94 -71l-285 -549h-127z" />
<glyph unicode="&#x2022;" horiz-adv-x="733" d="M125 735q0 100 70.5 171t171.5 71q100 0 170.5 -70.5t70.5 -171.5q0 -100 -70.5 -170.5t-170.5 -70.5t-171 70.5t-71 170.5z" />
<glyph unicode="&#x2026;" horiz-adv-x="1808" d="M152 137q0 63 44 106.5t105 43.5q63 0 106.5 -43t43.5 -107q0 -61 -43 -105t-107 -44q-61 0 -105 44t-44 105zM754 137q0 63 44 106.5t107 43.5q61 0 105.5 -43t44.5 -107q0 -61 -44 -105t-106 -44q-63 0 -107 44t-44 105zM1358 137q0 63 44 106.5t105 43.5t105.5 -43 t44.5 -107q0 -61 -44 -105t-106 -44q-61 0 -105 44t-44 105z" />
<glyph unicode="&#x202f;" horiz-adv-x="370" />
<glyph unicode="&#x2039;" horiz-adv-x="675" d="M102 684l308 465l135 -82l-252 -383l252 -383l-135 -82z" />
<glyph unicode="&#x203a;" horiz-adv-x="675" d="M131 301l250 383l-250 383l135 82l307 -465l-307 -465z" />
<glyph unicode="&#x205f;" horiz-adv-x="462" />
<glyph unicode="&#x2122;" horiz-adv-x="1601" d="M84 1313v96h514v-96h-192v-611h-127v611h-195zM629 702l98 707h168l160 -567l155 567h170l97 -707h-125l-68 578l-172 -578h-119l-174 578l-65 -578h-125z" />
<glyph unicode="&#xe000;" horiz-adv-x="1105" d="M0 1105h1105v-1105h-1105v1105z" />
<glyph unicode="&#xfb01;" horiz-adv-x="1212" d="M809 1417q0 51 40 88t97 37t97 -36t40 -89q0 -51 -39.5 -87t-97.5 -36q-57 0 -97 36t-40 87zM821 0v1104h250v-1104h-250zM74 944v160h123v133q0 186 114 286q100 87 266 86q24 0 50 -1v-160q-180 -4 -181 -186v-158h181v-160h-181v-944h-249v944h-123z" />
<glyph unicode="&#xfb02;" horiz-adv-x="1216" d="M823 0v1608h250v-1608h-250zM74 944v160h123v133q0 186 114 286q100 87 266 86q24 0 50 -1v-160q-180 -4 -181 -186v-158h181v-160h-181v-944h-249v944h-123z" />
<glyph unicode="&#xfb03;" horiz-adv-x="1892" d="M1489 1417q0 51 40 88t97 37t97 -36t40 -89q0 -51 -39.5 -87t-97.5 -36q-57 0 -97 36t-40 87zM1501 0v1104h250v-1104h-250zM754 944v160h123v133q0 186 114 286q100 87 266 86q24 0 50 -1v-160q-180 -4 -181 -186v-158h181v-160h-181v-944h-249v944h-123zM74 944v160 h123v133q0 186 114 286q100 87 266 86q24 0 50 -1v-160q-180 -4 -181 -186v-158h181v-160h-181v-944h-249v944h-123z" />
<glyph unicode="&#xfb04;" horiz-adv-x="1896" d="M1503 0v1608h250v-1608h-250zM754 944v160h123v133q0 186 114 286q100 87 266 86q24 0 50 -1v-160q-180 -4 -181 -186v-158h181v-160h-181v-944h-249v944h-123zM74 944v160h123v133q0 186 114 286q100 87 266 86q24 0 50 -1v-160q-180 -4 -181 -186v-158h181v-160h-181 v-944h-249v944h-123z" />
</font>
</defs>
</svg>
