<?xml version="1.0" encoding="utf-8"?>
<!-- Generator: Adobe Illustrator 15.0.0, SVG Export Plug-In . SVG Version: 6.00 Build 0)  -->
<!DOCTYPE svg PUBLIC "-//W3C//DTD SVG 1.1//EN" "http://www.w3.org/Graphics/SVG/1.1/DTD/svg11.dtd">
<svg version="1.1" id="Layer_1" xmlns="http://www.w3.org/2000/svg" xmlns:xlink="http://www.w3.org/1999/xlink" x="0px" y="0px"
	 width="64px" height="64px" viewBox="0 0 64 64" enable-background="new 0 0 64 64" xml:space="preserve">
<polygon fill="#F76C10" points="44.434,2.561 46.327,10.859 54.744,9.604 53.316,17.994 61.574,20.055 57.044,27.26 63.885,32.325 
	56.943,37.249 61.324,44.545 53.026,46.438 54.282,54.855 45.892,53.427 43.831,61.686 36.624,57.155 31.56,63.996 26.637,57.054 
	19.34,61.435 17.448,53.137 9.03,54.393 10.458,46.002 2.199,43.941 6.729,36.735 -0.111,31.671 6.832,26.748 2.45,19.451 
	10.748,17.559 9.493,9.141 17.883,10.568 19.944,2.311 27.149,6.84 32.214,0 37.137,6.942 "/>
<g>
	<path fill="#FFFFFF" d="M10.113,32.039l6.343-14.882l2.649,1.129l-0.189,6.808c-0.025,1.346-0.137,3.568-0.263,5.028l0.044,0.019
		c0.579-1.605,1.481-4.274,2.648-7.012l1.402-3.29l2.54,1.083l-6.343,14.882l-2.65-1.13l0.136-6.622
		c0.029-1.475,0.175-3.656,0.387-5.132l-0.044-0.019c-0.552,1.539-1.421,3.882-2.701,6.885l-1.421,3.334L10.113,32.039z"/>
	<path fill="#FFFFFF" d="M30.562,33.032l-3.379-1.44L25.47,35.61l3.819,1.628l-1.073,2.517l-6.711-2.861l6.343-14.882l6.469,2.758
		l-1.073,2.517l-3.577-1.524l-1.458,3.423l3.379,1.439L30.562,33.032z"/>
	<path fill="#FFFFFF" d="M31.815,41.289l3.804-15.964l3.002,1.279l-1.803,6.25c-0.526,1.785-1.118,3.542-1.712,5.428l0.065,0.028
		c0.98-1.748,1.999-3.219,3.069-4.875l3.583-5.466l2.34,0.997l-1.509,6.297c-0.451,1.791-0.891,3.56-1.542,5.579l0.044,0.019
		c1.026-1.858,1.881-3.373,2.814-5.011l3.241-5.585l2.826,1.205l-8.971,13.762l-2.98-1.271l1.196-5.256
		c0.341-1.472,0.845-3.267,1.419-5.162l-0.045-0.019c-1.027,1.675-1.976,3.228-2.907,4.553l-3.063,4.434L31.815,41.289z"/>
	<path fill="#FFFFFF" d="M45.607,45.289c0.461-1.082,1.514-1.468,2.418-1.082c0.949,0.404,1.355,1.412,0.894,2.494
		c-0.433,1.016-1.371,1.503-2.409,1.061C45.583,47.366,45.175,46.305,45.607,45.289z M47.432,42.232l3.93-10.197l3.157,1.346
		l-4.635,9.896L47.432,42.232z"/>
</g>
</svg>
