<?xml version="1.0" standalone="no"?>
<!DOCTYPE svg PUBLIC "-//W3C//DTD SVG 20010904//EN"
 "http://www.w3.org/TR/2001/REC-SVG-20010904/DTD/svg10.dtd">
<svg version="1.0" xmlns="http://www.w3.org/2000/svg"
 width="719.000000pt" height="194.000000pt" viewBox="0 0 719.000000 194.000000"
 preserveAspectRatio="xMidYMid meet">

<g transform="translate(0.000000,194.000000) scale(0.100000,-0.100000)"
fill="#000000" stroke="none">
<path d="M1710 1580 c0 -11 -7 -147 -16 -302 -8 -156 -13 -295 -10 -310 3 -14
1 -41 -4 -59 -6 -19 -6 -29 0 -23 7 7 230 588 230 600 0 5 -64 24 -68 19 -3
-2 -11 -26 -18 -52 -7 -27 -28 -109 -48 -183 -48 -182 -87 -312 -82 -275 2 17
23 152 46 302 23 150 40 279 37 288 -4 9 -19 15 -37 15 -23 0 -30 -4 -30 -20z"/>
<path d="M754 1528 c6 -63 15 -120 61 -407 14 -84 25 -158 24 -165 0 -6 -31
104 -68 244 -88 331 -77 301 -109 294 -15 -4 -31 -10 -35 -14 -7 -6 53 -174
177 -493 25 -66 46 -122 46 -125 -1 -4 -62 113 -136 260 l-135 268 -27 -17
c-15 -9 -29 -18 -31 -20 -5 -3 37 -72 194 -318 80 -124 143 -225 141 -225 -2
0 -83 99 -181 220 -97 121 -178 220 -180 220 -9 0 -46 -41 -43 -49 4 -11 123
-138 307 -325 102 -105 120 -126 71 -86 -177 144 -306 248 -345 278 l-43 33
-21 -29 -20 -29 262 -173 c144 -95 267 -178 272 -183 6 -5 -107 51 -249 123
-243 125 -260 132 -273 115 -12 -17 -19 -55 -10 -55 8 0 592 -229 585 -230 -4
0 -105 26 -225 59 -287 77 -322 86 -328 80 -3 -3 -7 -19 -11 -36 l-6 -30 264
-42 c411 -66 411 -65 -54 -45 l-148 7 0 -38 0 -38 103 7 c202 13 520 26 524
22 2 -2 -36 -9 -84 -16 -48 -7 -173 -27 -278 -44 -189 -31 -190 -31 -187 -56
6 -56 -39 -63 442 66 74 20 144 38 155 41 20 4 -144 -63 -377 -154 -123 -47
-134 -58 -105 -98 13 -17 31 -9 293 125 153 78 286 149 294 157 13 12 10 12
-15 -1 -16 -8 -37 -15 -45 -17 -28 -4 -140 14 -140 22 0 5 -5 9 -12 9 -28 0
-147 100 -148 124 0 5 -7 17 -15 26 -20 22 -26 49 -31 140 -2 41 -8 154 -14
250 -5 96 -12 232 -16 303 l-6 127 -36 0 -35 0 7 -62z"/>
<path d="M1802 1104 c-79 -157 -141 -289 -138 -292 3 -2 -5 -17 -17 -33 -12
-15 -33 -43 -47 -63 -14 -19 -35 -40 -47 -47 -13 -7 -20 -15 -17 -18 3 -3 -14
-11 -38 -18 l-43 -12 45 5 c79 9 603 94 608 98 1 2 -1 17 -4 34 -8 39 -14 39
-129 7 -50 -14 -115 -32 -145 -40 -30 -8 -104 -29 -164 -45 -60 -17 -111 -29
-112 -27 -2 2 47 23 109 46 490 189 488 188 454 236 -13 17 -29 10 -270 -114
-142 -73 -257 -130 -257 -128 0 2 119 82 265 178 146 95 265 179 265 185 0 7
-8 21 -17 33 -18 21 -18 21 -170 -101 -83 -68 -186 -152 -230 -187 -43 -36
-76 -62 -73 -59 3 4 83 87 179 185 96 98 197 202 225 230 l50 53 -24 25 -25
26 -20 -24 c-11 -13 -83 -102 -160 -197 -77 -95 -150 -184 -163 -199 -12 -14
55 96 148 244 l171 270 -22 18 c-11 9 -26 17 -33 17 -6 0 -75 -129 -154 -286z"/>
<path d="M1022 1183 c-5 -10 -12 -31 -16 -48 -4 -16 -9 -38 -12 -47 -5 -16 3
-18 65 -18 82 0 83 2 43 75 -29 54 -63 70 -80 38z"/>
<path d="M1311 1145 c-30 -31 -51 -59 -47 -62 6 -7 125 -5 137 2 4 3 10 23 14
46 7 39 8 40 43 37 21 -2 36 -7 36 -13 -1 -5 -5 -25 -9 -42 l-7 -33 61 0 c55
0 61 2 67 24 3 13 4 38 2 57 l-3 34 -121 3 -120 3 -53 -56z"/>
<path d="M2436 947 c-22 -100 -42 -190 -44 -200 -4 -15 0 -18 19 -15 22 3 26
13 49 120 14 64 27 119 30 122 4 3 30 -56 59 -130 29 -75 55 -133 57 -131 3 2
29 66 58 142 l54 138 15 -69 c9 -38 21 -97 28 -131 11 -56 16 -63 36 -63 19 0
22 4 18 23 -3 12 -21 96 -41 187 -19 91 -38 172 -41 180 -3 8 -29 -48 -59
-125 -30 -77 -58 -149 -62 -159 -7 -15 -22 17 -68 137 -32 86 -61 157 -64 157
-3 0 -23 -82 -44 -183z"/>
<path d="M2981 1109 c-5 -13 -41 -101 -80 -196 -39 -95 -71 -175 -71 -178 0
-3 9 -5 21 -5 15 0 25 13 41 50 l21 50 82 0 82 0 21 -50 c16 -37 26 -50 41
-50 12 0 21 2 21 5 0 11 -152 380 -161 389 -5 5 -12 -1 -18 -15z m79 -236 c0
-2 -30 -3 -66 -3 -36 0 -64 4 -62 8 2 5 16 43 33 85 l29 76 33 -81 c18 -45 33
-83 33 -85z"/>
<path d="M3210 932 c0 -195 1 -202 20 -202 19 0 20 7 20 137 l0 137 28 -40
c16 -21 63 -88 105 -148 l77 -110 0 202 c0 194 -1 202 -20 202 -18 0 -20 -8
-22 -132 l-3 -132 -94 134 c-52 74 -98 139 -103 145 -4 5 -8 -82 -8 -193z"/>
<path d="M6357 1123 c-11 -17 -157 -376 -157 -385 0 -5 10 -8 21 -6 15 2 27
17 39 48 l18 45 85 3 85 3 18 -51 c14 -40 22 -50 41 -50 13 0 23 2 23 4 0 6
-159 389 -164 393 -2 2 -6 1 -9 -4z m54 -205 l19 -48 -65 0 c-36 0 -65 2 -65
5 0 4 23 64 52 135 l10 25 15 -35 c8 -19 24 -56 34 -82z"/>
<path d="M6580 932 c0 -195 1 -202 20 -202 19 0 20 7 20 137 l0 137 28 -40
c16 -21 63 -88 105 -148 l77 -110 0 202 c0 194 -1 202 -20 202 -18 0 -20 -8
-22 -132 l-3 -132 -94 134 c-52 74 -98 139 -103 145 -4 5 -8 -82 -8 -193z"/>
<path d="M3724 1106 c-42 -19 -64 -52 -64 -96 0 -48 30 -76 109 -100 97 -31
121 -46 121 -79 0 -15 -9 -36 -19 -45 -42 -38 -153 -28 -166 15 -8 24 -55 27
-55 3 0 -8 13 -28 28 -44 52 -52 166 -53 224 -1 24 21 31 36 32 68 1 57 -30
88 -113 113 -85 26 -109 39 -117 62 -21 68 96 109 152 53 33 -33 67 -34 55 -3
-20 54 -123 83 -187 54z"/>
<path d="M4881 1098 c-25 -13 -58 -40 -75 -61 -55 -70 -45 -201 20 -258 65
-57 161 -69 232 -29 92 52 128 170 80 260 -52 96 -167 135 -257 88z m177 -57
c30 -21 62 -84 62 -123 0 -33 -37 -101 -67 -123 -17 -11 -49 -21 -83 -23 -65
-4 -111 21 -141 78 -77 143 95 287 229 191z"/>
<path d="M5635 1106 c-44 -19 -67 -50 -68 -90 -1 -51 31 -80 123 -111 93 -31
118 -53 104 -93 -11 -32 -46 -52 -92 -52 -40 0 -92 25 -92 45 0 10 -10 15 -31
15 l-31 0 19 -32 c35 -61 131 -86 208 -54 46 20 67 55 63 107 -4 53 -34 77
-138 108 -80 25 -102 51 -82 95 20 44 130 47 152 5 13 -23 50 -26 50 -4 0 23
-46 62 -81 69 -45 9 -70 7 -104 -8z"/>
<path d="M3540 920 l0 -190 25 0 25 0 0 190 0 190 -25 0 -25 0 0 -190z"/>
<path d="M3990 920 c0 -183 1 -190 20 -190 18 0 20 7 20 85 l0 85 85 0 85 0 0
-85 c0 -84 0 -85 25 -85 l25 0 0 190 0 190 -25 0 c-25 0 -25 -1 -25 -85 l0
-85 -85 0 -85 0 0 85 c0 78 -2 85 -20 85 -19 0 -20 -7 -20 -190z"/>
<path d="M4480 920 c0 -183 1 -190 20 -190 18 0 20 7 20 75 0 71 1 75 23 75
16 0 36 -20 75 -75 46 -65 58 -75 84 -75 l29 0 -56 73 -56 72 29 12 c46 19 72
59 72 110 0 38 -5 50 -34 79 -33 33 -36 34 -120 34 l-86 0 0 -190z m180 130
c28 -28 26 -75 -5 -105 -20 -21 -34 -25 -80 -25 l-55 0 0 75 0 75 60 0 c47 0
64 -4 80 -20z"/>
<path d="M5210 983 c0 -71 5 -145 10 -165 23 -80 118 -117 203 -80 69 31 77
54 77 227 0 137 -1 145 -19 145 -18 0 -20 -10 -23 -151 -3 -145 -4 -152 -27
-170 -33 -27 -110 -26 -145 2 l-26 20 0 150 0 149 -25 0 -25 0 0 -127z"/>
<path d="M5890 920 l0 -190 25 0 c25 0 25 1 25 85 l0 85 85 0 85 0 0 -85 c0
-78 2 -85 20 -85 19 0 20 7 20 190 0 183 -1 190 -20 190 -18 0 -20 -7 -20 -85
l0 -85 -85 0 -85 0 0 85 c0 84 0 85 -25 85 l-25 0 0 -190z"/>
<path d="M994 1020 c-12 -5 -24 -21 -27 -38 -3 -16 -9 -41 -13 -56 -6 -24 -4
-26 24 -26 29 0 31 3 42 57 l12 56 30 -52 c17 -29 37 -55 45 -58 9 -4 36 15
70 48 54 52 55 53 50 24 -4 -16 -9 -40 -13 -52 -6 -22 -4 -23 69 -23 l75 0 11
48 c7 26 14 55 17 65 5 15 -4 17 -88 17 -60 0 -98 -4 -106 -12 -9 -9 -15 -9
-24 0 -14 14 -141 15 -174 2z"/>
<path d="M1420 1025 c0 -3 14 -33 31 -67 l31 -61 56 7 c31 4 58 8 60 11 2 2
-9 28 -25 57 l-28 53 -62 3 c-35 2 -63 0 -63 -3z"/>
<path d="M1685 624 c-104 -7 -210 -13 -234 -13 -24 -1 -42 -3 -40 -5 4 -4 260
-20 512 -31 l127 -7 0 36 0 36 -87 -1 c-49 -1 -173 -8 -278 -15z"/>
<path d="M1280 608 c13 -13 552 -288 564 -288 3 0 12 13 21 30 19 36 45 22
-263 140 -222 86 -289 115 -201 90 19 -6 102 -28 184 -50 83 -22 199 -53 260
-70 60 -16 113 -26 117 -22 4 4 8 20 10 37 3 29 3 29 -72 41 -341 55 -529 83
-550 82 -14 0 -36 3 -50 7 -14 5 -23 6 -20 3z"/>
</g>
</svg>
